<svg width="490" height="491" viewBox="0 0 490 491" fill="none" xmlns="http://www.w3.org/2000/svg">
<path d="M151.769 100.591C151.769 100.591 126.518 68.022 109.662 73.2813C92.8061 78.5407 104.37 103.302 149.058 101.571M155.82 100.591C155.82 100.591 181.071 68.022 197.927 73.2813C214.783 78.5407 203.219 103.302 158.531 101.571" stroke="#FF8300" stroke-width="3.501" stroke-miterlimit="10"/>
<path d="M132.169 66.9113L152.651 100.297" stroke="#FF8300" stroke-width="3.501" stroke-miterlimit="10"/>
<path d="M175.42 66.9113L154.971 100.297" stroke="#FF8300" stroke-width="3.501" stroke-miterlimit="10"/>
<path d="M232.031 98.99H75.5906V208.195H232.031V98.99Z" fill="#FE9526"/>
<path d="M236.082 98.99H71.54V130.775H236.082V98.99Z" fill="#FE9526"/>
<path d="M165.228 98.99H142.394V208.195H165.228V98.99Z" fill="white"/>
<path opacity="0.26" d="M232.031 150.799L75.5906 137.047V130.775H232.031V150.799Z" fill="black"/>
<path d="M412.09 227.501C412.09 227.501 388.897 197.545 373.347 202.413C357.831 207.28 368.48 230.016 409.575 228.448M415.814 227.501C415.814 227.501 439.007 197.545 454.557 202.413C470.073 207.28 459.424 230.016 418.329 228.448" stroke="#FFA74B" stroke-width="2.626" stroke-miterlimit="10"/>
<path d="M394.058 196.565L412.874 227.239" stroke="#FFA74B" stroke-width="2.626" stroke-miterlimit="10"/>
<path d="M433.846 196.565L414.997 227.239" stroke="#FFA74B" stroke-width="2.626" stroke-miterlimit="10"/>
<path d="M476.639 224.724H351.232V414.256H476.639V224.724Z" fill="#FFA74B"/>
<path d="M483.957 224.724H343.947V258.436H483.957V224.724Z" fill="#FFA74B"/>
<path d="M424.275 224.724H403.597V414.256H424.275V224.724Z" fill="white"/>
<path opacity="0.2" d="M351.232 258.436H476.672V287.771L351.232 266.995V258.436Z" fill="black"/>
<path d="M233.207 415.301H177.968L221.807 314.427H277.013L233.207 415.301Z" fill="#F59E0B"/>
<path d="M356.687 352.712H126.975C115.183 352.712 105.611 343.141 105.611 331.348V190.751C105.611 178.958 115.183 169.387 126.975 169.387H356.687C368.48 169.387 378.051 178.958 378.051 190.751V331.348C378.051 343.141 368.48 352.712 356.687 352.712Z" fill="#F59E0B"/>
<path d="M364.266 352.712H134.554C122.761 352.712 113.19 343.141 113.19 331.348V190.751C113.19 178.958 122.761 169.387 134.554 169.387H364.266C376.059 169.387 385.63 178.958 385.63 190.751V331.348C385.63 343.141 376.059 352.712 364.266 352.712Z" fill="#FDE68A"/>
<path d="M380.73 187.321V333.961C380.73 341.638 374.523 347.845 366.847 347.845H130.961C123.284 347.845 117.077 341.638 117.077 333.961V187.321C117.077 179.644 123.284 173.437 130.961 173.437H366.847C374.523 173.405 380.73 179.644 380.73 187.321Z" fill="white"/>
<path d="M266.723 405.011H185.351V415.301H277.013C277.013 409.617 272.407 405.011 266.723 405.011Z" fill="#F59E0B"/>
<path d="M277.732 328.539H223.244C216.351 328.539 210.733 322.92 210.733 316.027C210.733 309.135 216.351 303.516 223.244 303.516H277.732C284.625 303.516 290.243 309.135 290.243 316.027C290.243 322.953 284.625 328.539 277.732 328.539Z" fill="#F59E0B"/>
<path d="M142.427 417.098L98.0655 416.216L16.1375 414.648L16.6601 410.532L34.9208 269.739L65.5295 270.392L80.7848 270.751L116.849 271.503L117.894 271.535L128.772 336.117L132.529 358.461L133.639 365.06L134.685 371.267L137.233 386.391L138.572 394.329L141.708 412.884L142.427 417.098Z" fill="#FFA74B"/>
<path d="M80.7847 270.751L77.5834 293.781H62.2627L65.5294 270.392L80.7847 270.751Z" fill="#FFECD7"/>
<path d="M116.881 271.307L98.0654 416.216L142.427 417.098L117.894 271.535L116.881 271.307Z" fill="#FF921F"/>
<path d="M306.805 398.543C312.434 398.543 316.997 393.98 316.997 388.351C316.997 382.722 312.434 378.159 306.805 378.159C301.176 378.159 296.613 382.722 296.613 388.351C296.613 393.98 301.176 398.543 306.805 398.543Z" stroke="#FFA647" stroke-width="3.501" stroke-miterlimit="10"/>
<path d="M319.725 103.4C324.461 103.4 328.3 99.5609 328.3 94.825C328.3 90.0892 324.461 86.25 319.725 86.25C314.989 86.25 311.15 90.0892 311.15 94.825C311.15 99.5609 314.989 103.4 319.725 103.4Z" fill="#FFA647"/>
<path d="M451.159 157.692C453.433 157.692 455.275 155.849 455.275 153.576C455.275 151.303 453.433 149.46 451.159 149.46C448.886 149.46 447.043 151.303 447.043 153.576C447.043 155.849 448.886 157.692 451.159 157.692Z" fill="#FFA74B"/>
<path d="M15.1901 235.667C22.4607 235.667 28.3547 229.773 28.3547 222.503C28.3547 215.232 22.4607 209.338 15.1901 209.338C7.91941 209.338 2.02539 215.232 2.02539 222.503C2.02539 229.773 7.91941 235.667 15.1901 235.667Z" fill="#FE9526"/>
<path d="M226.258 321V310.615H227.515V319.884H232.343V321H226.258ZM242.648 315.807C242.648 316.903 242.451 317.849 242.055 318.647C241.66 319.445 241.117 320.06 240.427 320.493C239.738 320.926 238.95 321.142 238.064 321.142C237.178 321.142 236.391 320.926 235.701 320.493C235.011 320.06 234.469 319.445 234.073 318.647C233.678 317.849 233.48 316.903 233.48 315.807C233.48 314.712 233.678 313.765 234.073 312.968C234.469 312.17 235.011 311.554 235.701 311.122C236.391 310.689 237.178 310.473 238.064 310.473C238.95 310.473 239.738 310.689 240.427 311.122C241.117 311.554 241.66 312.17 242.055 312.968C242.451 313.765 242.648 314.712 242.648 315.807ZM241.431 315.807C241.431 314.908 241.281 314.149 240.98 313.53C240.683 312.912 240.279 312.443 239.768 312.126C239.261 311.808 238.693 311.649 238.064 311.649C237.435 311.649 236.866 311.808 236.355 312.126C235.848 312.443 235.444 312.912 235.143 313.53C234.846 314.149 234.697 314.908 234.697 315.807C234.697 316.707 234.846 317.465 235.143 318.084C235.444 318.703 235.848 319.171 236.355 319.489C236.866 319.807 237.435 319.966 238.064 319.966C238.693 319.966 239.261 319.807 239.768 319.489C240.279 319.171 240.683 318.703 240.98 318.084C241.281 317.465 241.431 316.707 241.431 315.807ZM251.862 313.86C251.751 313.519 251.604 313.213 251.421 312.942C251.242 312.668 251.027 312.435 250.777 312.242C250.53 312.05 250.25 311.903 249.935 311.801C249.621 311.7 249.276 311.649 248.901 311.649C248.286 311.649 247.726 311.808 247.222 312.126C246.719 312.443 246.318 312.912 246.021 313.53C245.723 314.149 245.574 314.908 245.574 315.807C245.574 316.707 245.725 317.465 246.026 318.084C246.327 318.703 246.734 319.171 247.248 319.489C247.762 319.807 248.34 319.966 248.982 319.966C249.577 319.966 250.101 319.839 250.554 319.585C251.011 319.328 251.366 318.967 251.619 318.5C251.876 318.03 252.004 317.477 252.004 316.842L252.39 316.923H249.266V315.807H253.222V316.923C253.222 317.778 253.039 318.522 252.674 319.154C252.312 319.786 251.812 320.277 251.173 320.625C250.537 320.97 249.807 321.142 248.982 321.142C248.063 321.142 247.255 320.926 246.558 320.493C245.865 320.06 245.324 319.445 244.935 318.647C244.55 317.849 244.357 316.903 244.357 315.807C244.357 314.986 244.467 314.247 244.687 313.591C244.91 312.932 245.225 312.371 245.63 311.908C246.036 311.445 246.516 311.09 247.07 310.843C247.625 310.596 248.235 310.473 248.901 310.473C249.449 310.473 249.959 310.555 250.432 310.721C250.909 310.883 251.333 311.115 251.705 311.416C252.081 311.713 252.393 312.07 252.643 312.486C252.894 312.898 253.066 313.356 253.161 313.86H251.862ZM260.649 310.615V321H259.392V310.615H260.649ZM271.406 310.615V321H270.189L264.53 312.846H264.428V321H263.171V310.615H264.388L270.067 318.789H270.169V310.615H271.406Z" fill="white"/>
<rect x="156.5" y="212.5" width="191" height="23" rx="11.5" fill="#F4F4F4" fill-opacity="0.25" stroke="#F59E0B"/>
<rect x="156.5" y="249.5" width="191" height="23" rx="11.5" fill="#F4F4F4" fill-opacity="0.25" stroke="#F59E0B"/>
<g clip-path="url(#clip0_48_30)">
<path d="M173.278 222.326C173.206 222.2 173.088 222.109 172.947 222.072C172.808 222.034 172.66 222.053 172.534 222.126L170.038 223.567V220.686C170.038 220.385 169.794 220.141 169.494 220.141C169.193 220.141 168.949 220.385 168.949 220.686V223.56L166.466 222.126C166.34 222.053 166.194 222.034 166.053 222.072C165.912 222.109 165.794 222.2 165.722 222.326C165.571 222.586 165.661 222.92 165.921 223.07L168.41 224.507L165.927 225.941C165.801 226.013 165.711 226.131 165.673 226.272C165.635 226.412 165.655 226.559 165.728 226.685C165.872 226.935 166.222 227.03 166.472 226.884L168.949 225.455V228.314C168.949 228.615 169.193 228.859 169.494 228.859C169.794 228.859 170.038 228.615 170.038 228.314V225.447L172.528 226.884C172.778 227.03 173.128 226.935 173.272 226.685C173.345 226.559 173.364 226.412 173.327 226.272C173.289 226.131 173.199 226.013 173.073 225.941L170.59 224.507L173.079 223.07C173.339 222.92 173.429 222.586 173.278 222.326Z" fill="#585858"/>
</g>
<g clip-path="url(#clip1_48_30)">
<path d="M187.278 222.326C187.206 222.2 187.088 222.109 186.947 222.072C186.808 222.034 186.66 222.053 186.534 222.126L184.038 223.567V220.686C184.038 220.385 183.794 220.141 183.494 220.141C183.193 220.141 182.949 220.385 182.949 220.686V223.56L180.466 222.126C180.34 222.053 180.194 222.034 180.053 222.072C179.912 222.109 179.794 222.2 179.722 222.326C179.571 222.586 179.661 222.92 179.921 223.07L182.41 224.507L179.927 225.941C179.801 226.013 179.711 226.131 179.673 226.272C179.635 226.412 179.655 226.559 179.728 226.685C179.872 226.935 180.222 227.03 180.472 226.884L182.949 225.455V228.314C182.949 228.615 183.193 228.859 183.494 228.859C183.794 228.859 184.038 228.615 184.038 228.314V225.447L186.528 226.884C186.778 227.03 187.128 226.935 187.272 226.685C187.345 226.559 187.364 226.412 187.327 226.272C187.289 226.131 187.199 226.013 187.073 225.941L184.59 224.507L187.079 223.07C187.339 222.92 187.429 222.586 187.278 222.326Z" fill="#585858"/>
</g>
<g clip-path="url(#clip2_48_30)">
<path d="M201.278 222.326C201.206 222.2 201.088 222.109 200.947 222.072C200.808 222.034 200.66 222.053 200.534 222.126L198.038 223.567V220.686C198.038 220.385 197.794 220.141 197.494 220.141C197.193 220.141 196.949 220.385 196.949 220.686V223.56L194.466 222.126C194.34 222.053 194.194 222.034 194.053 222.072C193.912 222.109 193.794 222.2 193.722 222.326C193.571 222.586 193.661 222.92 193.921 223.07L196.41 224.507L193.927 225.941C193.801 226.013 193.711 226.131 193.673 226.272C193.635 226.412 193.655 226.559 193.728 226.685C193.872 226.935 194.222 227.03 194.472 226.884L196.949 225.455V228.314C196.949 228.615 197.193 228.859 197.494 228.859C197.794 228.859 198.038 228.615 198.038 228.314V225.447L200.528 226.884C200.778 227.03 201.128 226.935 201.272 226.685C201.345 226.559 201.364 226.412 201.327 226.272C201.289 226.131 201.199 226.013 201.073 225.941L198.59 224.507L201.079 223.07C201.339 222.92 201.429 222.586 201.278 222.326Z" fill="#585858"/>
</g>
<g clip-path="url(#clip3_48_30)">
<path d="M215.278 222.326C215.206 222.2 215.088 222.109 214.947 222.072C214.808 222.034 214.66 222.053 214.534 222.126L212.038 223.567V220.686C212.038 220.385 211.794 220.141 211.494 220.141C211.193 220.141 210.949 220.385 210.949 220.686V223.56L208.466 222.126C208.34 222.053 208.194 222.034 208.053 222.072C207.912 222.109 207.794 222.2 207.722 222.326C207.571 222.586 207.661 222.92 207.921 223.07L210.41 224.507L207.927 225.941C207.801 226.013 207.711 226.131 207.673 226.272C207.635 226.412 207.655 226.559 207.728 226.685C207.872 226.935 208.222 227.03 208.472 226.884L210.949 225.455V228.314C210.949 228.615 211.193 228.859 211.494 228.859C211.794 228.859 212.038 228.615 212.038 228.314V225.447L214.528 226.884C214.778 227.03 215.128 226.935 215.272 226.685C215.345 226.559 215.364 226.412 215.327 226.272C215.289 226.131 215.199 226.013 215.073 225.941L212.59 224.507L215.079 223.07C215.339 222.92 215.429 222.586 215.278 222.326Z" fill="#585858"/>
</g>
<g clip-path="url(#clip4_48_30)">
<path d="M229.278 222.326C229.206 222.2 229.088 222.109 228.947 222.072C228.808 222.034 228.66 222.053 228.534 222.126L226.038 223.567V220.686C226.038 220.385 225.794 220.141 225.494 220.141C225.193 220.141 224.949 220.385 224.949 220.686V223.56L222.466 222.126C222.34 222.053 222.194 222.034 222.053 222.072C221.912 222.109 221.794 222.2 221.722 222.326C221.571 222.586 221.661 222.92 221.921 223.07L224.41 224.507L221.927 225.941C221.801 226.013 221.711 226.131 221.673 226.272C221.635 226.412 221.655 226.559 221.728 226.685C221.872 226.935 222.222 227.03 222.472 226.884L224.949 225.455V228.314C224.949 228.615 225.193 228.859 225.494 228.859C225.794 228.859 226.038 228.615 226.038 228.314V225.447L228.528 226.884C228.778 227.03 229.128 226.935 229.272 226.685C229.345 226.559 229.364 226.412 229.327 226.272C229.289 226.131 229.199 226.013 229.073 225.941L226.59 224.507L229.079 223.07C229.339 222.92 229.429 222.586 229.278 222.326Z" fill="#585858"/>
</g>
<g clip-path="url(#clip5_48_30)">
<path d="M243.278 222.326C243.206 222.2 243.088 222.109 242.947 222.072C242.808 222.034 242.66 222.053 242.534 222.126L240.038 223.567V220.686C240.038 220.385 239.794 220.141 239.494 220.141C239.193 220.141 238.949 220.385 238.949 220.686V223.56L236.466 222.126C236.34 222.053 236.194 222.034 236.053 222.072C235.912 222.109 235.794 222.2 235.722 222.326C235.571 222.586 235.661 222.92 235.921 223.07L238.41 224.507L235.927 225.941C235.801 226.013 235.711 226.131 235.673 226.272C235.635 226.412 235.655 226.559 235.728 226.685C235.872 226.935 236.222 227.03 236.472 226.884L238.949 225.455V228.314C238.949 228.615 239.193 228.859 239.494 228.859C239.794 228.859 240.038 228.615 240.038 228.314V225.447L242.528 226.884C242.778 227.03 243.128 226.935 243.272 226.685C243.345 226.559 243.364 226.412 243.327 226.272C243.289 226.131 243.199 226.013 243.073 225.941L240.59 224.507L243.079 223.07C243.339 222.92 243.429 222.586 243.278 222.326Z" fill="#585858"/>
</g>
<defs>
<clipPath id="clip0_48_30">
<rect width="9" height="9" fill="white" transform="translate(165 220)"/>
</clipPath>
<clipPath id="clip1_48_30">
<rect width="9" height="9" fill="white" transform="translate(179 220)"/>
</clipPath>
<clipPath id="clip2_48_30">
<rect width="9" height="9" fill="white" transform="translate(193 220)"/>
</clipPath>
<clipPath id="clip3_48_30">
<rect width="9" height="9" fill="white" transform="translate(207 220)"/>
</clipPath>
<clipPath id="clip4_48_30">
<rect width="9" height="9" fill="white" transform="translate(221 220)"/>
</clipPath>
<clipPath id="clip5_48_30">
<rect width="9" height="9" fill="white" transform="translate(235 220)"/>
</clipPath>
</defs>
</svg>
