<svg width="520" height="468" viewBox="0 0 520 468" fill="none" xmlns="http://www.w3.org/2000/svg">
<path d="M39.9066 56.6099V400.028H480.098V56.6099H39.9066ZM471.223 391.627H48.7773V65.011H471.223V391.627Z" fill="#FDE68A"/>
<path d="M471.227 65.011H48.7773V391.627H471.227V65.011Z" fill="white"/>
<g opacity="0.2">
<path d="M230.046 65.011L48.7773 236.637V182.508L172.882 65.011H230.046Z" fill="#ECECEC"/>
<path d="M471.223 183.217V237.346L308.307 391.627H251.143L471.223 183.217Z" fill="#ECECEC"/>
<path d="M471.223 72.8219V99.8864L163.105 391.627H134.523L471.223 72.8219Z" fill="#ECECEC"/>
<path d="M471.223 350.702V377.761L456.585 391.627H428.003L471.223 350.702Z" fill="#ECECEC"/>
<path d="M98.2285 65.011L48.7773 111.857V84.7739L69.6466 65.011H98.2285Z" fill="#ECECEC"/>
<path d="M311.886 65.011L48.7773 314.132V307.392L304.733 65.011H311.886Z" fill="#ECECEC"/>
<path d="M450.073 65.011L105.125 391.627H97.9865L442.921 65.011H450.073Z" fill="#ECECEC"/>
<path d="M471.223 317.307V324.061L399.891 391.627H392.734L471.223 317.307Z" fill="#ECECEC"/>
<path d="M141.728 65.011L48.7773 153.044V146.271L134.609 65.011H141.728Z" fill="#ECECEC"/>
</g>
<path d="M194.483 56.6099H185.612V400.028H194.483V56.6099Z" fill="#FDE68A"/>
<path d="M496.364 64.4207H23.6364C51.9288 40.5168 57.6291 21.2822 57.6291 21.2822H462.347C462.347 21.2822 468.052 40.512 496.364 64.4207Z" fill="#E39F57"/>
<path d="M121.661 21.2822C121.134 25.0568 120.569 28.9265 119.226 32.6392C118.661 34.5003 117.802 36.3424 117.071 38.1797C116.677 39.1031 116.136 40.0075 115.681 40.9214C115.225 41.8352 114.76 42.7491 114.171 43.6392C112.002 47.2424 109.496 50.8028 106.44 54.2489C104.907 55.9815 103.326 57.6998 101.636 59.38C99.885 61.0603 98.0292 62.7072 96.0405 64.3065L95.9694 64.3779V64.4255H60.4863C62.7171 62.8738 64.7057 61.2649 66.647 59.6418C68.6594 57.9854 70.5674 56.3004 72.314 54.5678C75.8262 51.1169 79.0727 47.5994 81.7116 43.9581C84.398 40.3407 86.624 36.628 88.2045 32.8534C89.8704 29.0789 90.6251 25.1139 90.8387 21.2822H121.661ZM180.714 21.2822C180.476 23.11 180.32 25.033 180.149 26.8322L179.48 32.2775C178.844 35.895 178.412 39.5124 177.467 43.1061C177.05 44.9101 176.532 46.6998 176.053 48.5038C175.512 50.284 174.928 52.0832 174.245 53.8539C172.792 57.3999 171.273 60.9698 168.696 64.3446L168.682 64.3922V64.4302H133.185C135.116 62.8547 136.626 61.184 138.121 59.5276C139.63 57.8093 140.973 56.0767 142.146 54.3108C144.481 50.779 146.446 47.1853 147.851 43.5298C148.487 41.702 149.194 39.8742 149.626 38.0369C149.863 37.1135 150.153 36.1996 150.319 35.2714L150.774 32.4964C150.955 31.5825 151.04 30.6448 151.097 29.7214L151.287 26.9464C151.311 25.0949 151.225 23.1243 151.121 21.287H180.714V21.2822ZM243.882 21.2822C243.559 23.2909 243.379 25.4043 243.113 27.4129L242.572 33.4198C242.249 37.4229 242.107 41.4354 241.841 45.4384C241.755 49.451 241.551 53.4683 241.551 57.4666C241.537 59.7846 241.551 62.1074 241.599 64.4255H205.874C206.581 62.6596 207.084 60.8937 207.578 59.1135C208.104 57.3333 208.536 55.5436 208.859 53.7396C209.505 50.1697 210.131 46.5665 210.368 42.9728C210.634 39.3792 210.872 35.7855 210.739 32.1823C210.715 30.3783 210.629 28.5886 210.525 26.7846C210.368 24.9949 210.226 23.0814 209.984 21.2822H243.882ZM278.397 64.4255C278.444 62.1074 278.458 59.7846 278.444 57.4666C278.444 53.4636 278.24 49.451 278.154 45.4384C277.889 41.4354 277.746 37.4229 277.424 33.4198L276.882 27.4129C276.617 25.4043 276.441 23.2909 276.114 21.2822H310.002C309.76 23.0862 309.617 24.9949 309.461 26.7846C309.352 28.5886 309.271 30.3783 309.247 32.1823C309.114 35.7855 309.356 39.3792 309.617 42.9728C309.855 46.5665 310.481 50.1697 311.127 53.7396C311.449 55.5436 311.881 57.3333 312.408 59.1135C312.902 60.8937 313.405 62.6596 314.112 64.4255H278.397ZM351.318 64.4255V64.3874L351.28 64.3398C348.727 60.9651 347.208 57.3952 345.755 53.8491C345.072 52.0832 344.483 50.2792 343.947 48.499C343.468 46.695 342.95 44.9053 342.533 43.1014C341.588 39.5077 341.156 35.8902 340.52 32.2727L339.851 26.8274C339.685 25.0235 339.528 23.1005 339.286 21.2775H368.874C368.765 23.1148 368.685 25.0853 368.708 26.9369L368.898 29.7119C368.96 30.6353 369.041 31.573 369.221 32.4869L369.677 35.2619C369.843 36.1853 370.132 37.0992 370.37 38.0274C370.801 39.8647 371.509 41.6924 372.145 43.5202C373.545 47.1758 375.51 50.7695 377.85 54.3013C379.022 56.0672 380.365 57.7998 381.874 59.5181C383.374 61.1745 384.884 62.8452 386.811 64.4207H351.318V64.4255ZM424.035 64.4255V64.3779L423.964 64.3065C421.976 62.7072 420.12 61.0603 418.368 59.38C416.679 57.6998 415.098 55.9767 413.565 54.2489C410.509 50.798 408.003 47.2424 405.834 43.6392C405.245 42.7491 404.78 41.8352 404.324 40.9214C403.869 40.0075 403.328 39.1079 402.934 38.1797C402.203 36.3424 401.339 34.5003 400.779 32.6392C399.436 28.9265 398.876 25.0568 398.344 21.2822H429.166C429.38 25.1139 430.139 29.0836 431.8 32.8534C433.381 36.628 435.612 40.3407 438.293 43.9581C440.927 47.5994 444.179 51.1217 447.691 54.5678C449.442 56.3004 451.345 57.9806 453.358 59.6418C455.299 61.2649 457.288 62.8738 459.518 64.4255H424.035Z" fill="#F0FFF3"/>
<path d="M496.354 64.4207H23.6459V78.467H496.354V64.4207Z" fill="#E39F57"/>
<path d="M96.3395 78.4623H59.9785L60.5195 64.4255H95.7985L96.3395 78.4623Z" fill="#F0FFF3"/>
<path d="M169.066 78.4623H132.71L133.246 64.4255H168.53L169.066 78.4623Z" fill="#F0FFF3"/>
<path d="M241.798 78.4623H205.437L205.978 64.4255H241.257L241.798 78.4623Z" fill="#F0FFF3"/>
<path d="M314.525 78.4623H278.154L278.705 64.4255H313.989L314.525 78.4623Z" fill="#F0FFF3"/>
<path d="M386.706 64.4255H351.427L350.886 78.4623H387.257L386.706 64.4255ZM386.811 76.3109H386.872L386.92 76.4299C386.896 76.4156 386.896 76.4061 386.872 76.3823C386.858 76.3585 386.834 76.3347 386.811 76.3109Z" fill="#F0FFF3"/>
<path d="M386.873 76.3108L386.92 76.4303C386.896 76.4159 386.896 76.4064 386.873 76.3825C386.858 76.3586 386.834 76.3347 386.811 76.3108H386.873Z" fill="#FF8300"/>
<path d="M459.433 64.4255H424.154L423.613 78.4623H459.974L459.433 64.4255ZM459.518 76.3109H459.613L459.675 76.4441C459.651 76.4299 459.628 76.4061 459.613 76.3823C459.59 76.3585 459.542 76.3347 459.518 76.3109Z" fill="#F0FFF3"/>
<path d="M459.614 76.3108L459.676 76.4446C459.652 76.4303 459.628 76.4064 459.614 76.3825C459.59 76.3586 459.542 76.3347 459.518 76.3108H459.614Z" fill="#FF8300"/>
<g opacity="0.1">
<path d="M90.8386 21.2822C90.625 25.1139 89.8656 29.0836 88.2044 32.8534C86.6239 36.628 84.3932 40.3407 81.7116 43.9581C79.0774 47.5994 75.8262 51.1217 72.314 54.5678C70.5626 56.3004 68.6593 57.9806 66.6469 59.6418C64.7057 61.2649 62.717 62.8738 60.4863 64.4255C60.4626 64.4493 60.4151 64.4636 60.3914 64.4874C60.3771 64.5016 60.3534 64.5254 60.3297 64.535L60.3914 64.4255H59.613V64.3779L59.6842 64.3065C63.747 61.0507 67.3636 57.6379 70.7572 54.2013C74.1982 50.7647 77.1219 47.2186 79.9127 43.6487C82.751 40.0789 84.8251 36.3995 86.8138 32.7011L88.1333 29.9118C88.5509 28.9884 88.8025 28.0269 89.2012 27.0892C90.0365 25.2091 90.2359 23.1909 90.8386 21.2822ZM120.64 32.7344C119.815 36.509 118.039 40.2359 116.003 43.8867C113.991 47.5661 111.162 51.1217 108.02 54.5964C104.878 58.0092 101.223 61.3363 96.8284 64.4255C96.8142 64.4398 96.7904 64.4636 96.7667 64.4636C96.7525 64.4778 96.7287 64.4874 96.7192 64.5016L96.7667 64.4302H95.9646V64.3826L96.0358 64.3112C98.0244 62.7119 99.8802 61.065 101.632 59.3848C103.321 57.7046 104.902 55.9815 106.435 54.2537C109.491 50.8028 111.997 47.2472 114.166 43.644C114.755 42.7539 115.22 41.84 115.676 40.9261C116.131 40.0122 116.672 39.1126 117.066 38.1844C117.797 36.3471 118.661 34.5051 119.221 32.644C120.564 28.9313 121.124 25.0615 121.656 21.287C121.851 25.052 121.694 28.9837 120.64 32.7344ZM244.124 33.4294C244.1 37.4419 243.92 41.4449 243.834 45.4575C243.568 49.47 243.426 53.4731 243.08 57.4856C242.89 59.7941 242.686 62.1122 242.434 64.4207H241.608C241.561 62.1027 241.547 59.7799 241.561 57.4618C241.561 53.4588 241.765 49.4462 241.85 45.4337C242.116 41.4307 242.258 37.4181 242.581 33.4151L243.122 27.4082C243.388 25.3995 243.564 23.2861 243.891 21.2775C244.024 23.2861 244.024 25.4138 244.105 27.4177L244.124 33.4294ZM278.444 57.4666C278.458 59.7846 278.444 62.1074 278.396 64.4255H277.571C277.319 62.117 277.115 59.7989 276.925 57.4904C276.579 53.4778 276.432 49.4748 276.171 45.4622C276.085 41.4497 275.905 37.4467 275.881 33.4341L275.905 27.4272C275.99 25.4185 275.99 23.2909 276.118 21.287C276.441 23.2956 276.621 25.409 276.887 27.4177L277.428 33.4246C277.751 37.4276 277.893 41.4402 278.159 45.4432C278.24 49.451 278.444 53.4636 278.444 57.4666ZM210.373 42.9728C210.136 46.5665 209.509 50.1697 208.864 53.7396C208.541 55.5436 208.109 57.3333 207.582 59.1135C207.089 60.8937 206.586 62.6596 205.878 64.4255H205.029V64.3779C205.988 60.8318 206.529 57.2524 207.127 53.6682C207.739 50.0983 208.038 46.5189 208.47 42.9252C208.888 39.3554 209.035 35.7617 209.343 32.1823L209.989 21.2822C210.226 23.0862 210.373 24.9949 210.53 26.7846C210.639 28.5886 210.72 30.3783 210.743 32.1823C210.876 35.7855 210.639 39.3792 210.373 42.9728ZM181.013 26.8465C181.013 28.6743 180.942 30.4878 180.88 32.3156C180.69 35.9568 180.149 39.5886 179.371 43.2156C178.654 46.8474 177.415 50.4363 175.92 54.0205C175.189 55.8102 174.254 57.5761 173.224 59.3324C172.18 61.065 171.079 62.769 169.522 64.4302C169.522 64.4445 169.498 64.454 169.498 64.4683C169.484 64.4683 169.475 64.4683 169.475 64.4826L169.498 64.435H168.682V64.3969L168.696 64.3493C171.273 60.9746 172.797 57.4047 174.245 53.8586C174.928 52.0927 175.517 50.2887 176.053 48.5085C176.532 46.7046 177.05 44.9149 177.467 43.1109C178.412 39.5172 178.844 35.8997 179.48 32.2822L180.149 26.837C180.315 25.033 180.472 23.11 180.714 21.287C180.861 23.1052 180.932 25.0282 181.013 26.8465ZM151.296 26.9417L151.107 29.7167C151.045 30.6401 150.964 31.5778 150.784 32.4917L150.328 35.2667C150.162 36.1901 149.873 37.104 149.635 38.0321C149.203 39.8694 148.496 41.6972 147.86 43.525C146.46 47.1805 144.495 50.7742 142.155 54.306C140.983 56.0719 139.64 57.8045 138.13 59.5228C136.631 61.1793 135.121 62.85 133.194 64.4255C133.17 64.4493 133.147 64.4636 133.133 64.4874C133.109 64.5016 133.109 64.5112 133.085 64.5254L133.133 64.4302H132.326V64.3826L132.364 64.3208C135.743 61.0507 138.235 57.5427 140.489 54.0443C142.753 50.5362 144.419 46.9521 145.976 43.3489C147.428 39.7457 148.515 36.0901 149.379 32.4345C149.896 30.6068 150.024 28.7695 150.409 26.9322C150.722 25.0949 150.827 23.1243 151.126 21.2822C151.235 23.1195 151.32 25.0901 151.296 26.9417ZM460.392 64.4255H459.613L459.675 64.535C459.651 64.5207 459.628 64.4969 459.613 64.4874C459.59 64.4636 459.542 64.4493 459.518 64.4255C457.288 62.8738 455.299 61.2649 453.358 59.6418C451.345 57.9854 449.437 56.3004 447.691 54.5678C444.178 51.1169 440.932 47.5994 438.293 43.9581C435.607 40.3407 433.381 36.628 431.8 32.8534C430.134 29.0789 429.38 25.1139 429.166 21.2822C429.764 23.1909 429.968 25.2139 430.808 27.0892C431.202 28.0269 431.454 28.9884 431.876 29.9118L433.196 32.7011C435.184 36.4043 437.258 40.0789 440.097 43.6487C442.888 47.2186 445.811 50.7647 449.252 54.2013C452.646 57.6379 456.262 61.0507 460.325 64.3065L460.396 64.3779V64.4255H460.392ZM424.035 64.4255H423.233L423.281 64.4969C423.267 64.4826 423.243 64.4731 423.233 64.4588C423.21 64.4588 423.186 64.435 423.172 64.4207C418.772 61.3316 415.117 58.0044 411.98 54.5916C408.838 51.1169 406.014 47.5613 403.997 43.882C401.961 40.2264 400.185 36.5042 399.36 32.7297C398.306 28.9789 398.149 25.052 398.339 21.2775C398.866 25.052 399.431 28.9218 400.774 32.6345C401.339 34.4956 402.198 36.3376 402.929 38.1749C403.323 39.0983 403.864 40.0027 404.319 40.9166C404.775 41.8305 405.24 42.7444 405.829 43.6345C407.998 47.2377 410.504 50.798 413.56 54.2442C415.093 55.9767 416.674 57.6951 418.364 59.3753C420.115 61.0555 421.971 62.7024 423.959 64.3017L424.031 64.3731V64.4255H424.035ZM314.971 64.3779V64.4255H314.122C313.414 62.6596 312.911 60.8937 312.418 59.1135C311.891 57.3333 311.459 55.5436 311.136 53.7396C310.491 50.1697 309.864 46.5665 309.627 42.9728C309.361 39.3792 309.124 35.7855 309.257 32.1823C309.28 30.3783 309.366 28.5886 309.47 26.7846C309.627 24.9949 309.769 23.0814 310.011 21.2822L310.657 32.1823C310.97 35.7617 311.112 39.3554 311.53 42.9252C311.962 46.5189 312.261 50.0983 312.873 53.6682C313.471 57.2524 314.012 60.8318 314.971 64.3779ZM351.318 64.4255H350.502L350.525 64.4731C350.525 64.4588 350.511 64.4588 350.502 64.4588C350.502 64.4445 350.478 64.435 350.478 64.4207C348.921 62.7643 347.815 61.0555 346.776 59.3229C345.746 57.5665 344.811 55.8006 344.08 54.0109C342.58 50.4315 341.346 46.8378 340.629 43.2061C339.851 39.5743 339.31 35.9473 339.12 32.306C339.058 30.4782 338.987 28.6647 338.987 26.837C339.073 25.0235 339.144 23.1005 339.286 21.2727C339.528 23.1005 339.68 25.0235 339.851 26.8227L340.52 32.268C341.156 35.8854 341.588 39.5029 342.533 43.0966C342.95 44.9006 343.468 46.6903 343.947 48.4943C344.488 50.2745 345.072 52.0737 345.755 53.8443C347.208 57.3904 348.727 60.9603 351.28 64.335L351.318 64.3826V64.4255ZM387.674 64.4255H386.872L386.92 64.5207C386.896 64.5064 386.896 64.4969 386.872 64.4826C386.858 64.4588 386.834 64.4445 386.811 64.4207C384.879 62.8452 383.369 61.1745 381.874 59.5181C380.365 57.7998 379.022 56.0672 377.85 54.3013C375.514 50.7695 373.549 47.1758 372.145 43.5202C371.509 41.6924 370.801 39.8647 370.37 38.0274C370.127 37.104 369.843 36.1901 369.677 35.2619L369.221 32.4869C369.041 31.573 368.955 30.6353 368.898 29.7119L368.708 26.9369C368.685 25.0853 368.77 23.1148 368.874 21.2775C369.173 23.1148 369.283 25.0853 369.591 26.9274C369.976 28.7647 370.108 30.6068 370.621 32.4298C371.485 36.0853 372.576 39.7362 374.024 43.3441C375.581 46.9473 377.247 50.5315 379.511 54.0395C381.765 57.538 384.257 61.046 387.636 64.316L387.674 64.3779V64.4255Z" fill="black"/>
</g>
<g opacity="0.1">
<path d="M350.497 76.3062L350.54 76.4013C350.516 76.3871 350.516 76.3585 350.497 76.349C350.497 76.3347 350.473 76.3204 350.473 76.3062H350.497ZM386.92 76.4299C386.896 76.4156 386.896 76.4061 386.872 76.3823C386.858 76.3585 386.834 76.3347 386.811 76.3109H386.872L386.92 76.4299ZM423.233 76.3062L423.319 76.4394C423.295 76.4109 423.252 76.3871 423.233 76.3585C423.21 76.3442 423.191 76.3157 423.167 76.3062H423.233ZM459.675 76.4442C459.651 76.4299 459.628 76.4061 459.613 76.3823C459.59 76.3585 459.542 76.3347 459.518 76.3109H459.613L459.675 76.4442Z" fill="black"/>
<path d="M60.5195 64.4255L59.9785 78.4623L59.4374 64.4255H60.5195Z" fill="black"/>
<path d="M96.8759 64.4255L96.3395 78.4623L95.7985 64.4255H96.8759Z" fill="black"/>
<path d="M133.246 64.4255L132.71 78.4623L132.169 64.4255H133.246Z" fill="black"/>
<path d="M169.608 64.4255L169.066 78.4623L168.53 64.4255H169.608Z" fill="black"/>
<path d="M205.978 64.4255L205.437 78.4623L204.886 64.4255H205.978Z" fill="black"/>
<path d="M242.334 64.4255L241.798 78.4623L241.257 64.4255H242.334Z" fill="black"/>
<path d="M278.705 64.4255L278.154 78.4623L277.618 64.4255H278.705Z" fill="black"/>
<path d="M315.066 64.4255L314.525 78.4623L313.989 64.4255H315.066Z" fill="black"/>
<path d="M351.422 64.4255L350.886 78.4623L350.345 64.4255H351.422Z" fill="black"/>
<path d="M387.793 64.4255L387.257 78.4623L386.706 64.4255H387.793Z" fill="black"/>
<path d="M424.154 64.4255L423.613 78.4623L423.077 64.4255H424.154Z" fill="black"/>
<path d="M460.525 64.4255L459.974 78.4623L459.433 64.4255H460.525Z" fill="black"/>
</g>
<path d="M158.843 129.036H65.7025V137.284H158.843V129.036Z" fill="#FBBF24"/>
<path d="M158.843 207.121H65.7025V215.37H158.843V207.121Z" fill="#FBBF24"/>
<path d="M158.843 285.211H65.7025V293.46H158.843V285.211Z" fill="#FBBF24"/>
<path d="M158.843 363.296H65.7025V371.545H158.843V363.296Z" fill="#FBBF24"/>
<path d="M158.843 207.14H65.7025V215.389H158.843V207.14Z" fill="#FBBF24"/>
<path d="M147.808 128.674C145.61 129.393 82.7795 129.583 80.3969 128.046C79.4903 127.47 78.6407 117.117 79.5757 106.384L120.066 106.721C120.066 106.721 143.256 117.683 145.691 119.649C148.107 121.61 150.005 127.95 147.808 128.674Z" fill="#FE9526"/>
<path d="M148.733 127.279C148.634 127.984 148.34 128.493 147.803 128.679C145.606 129.397 82.7795 129.583 80.3874 128.041C80.1785 127.898 79.965 127.208 79.7798 126.094H132.895C133.104 124.585 133.797 121.901 135.852 119.882C137.808 117.979 140.242 117.483 141.738 117.369C143.707 118.402 145.16 119.235 145.677 119.644C147.21 120.887 148.534 123.881 148.748 126.094C148.79 126.518 148.79 126.927 148.733 127.279Z" fill="white"/>
<path d="M146.925 126.146C136.398 125.813 93.9142 125.461 83.482 125.932C83.3965 125.937 83.3965 125.994 83.482 125.999C93.9095 126.56 136.398 126.565 146.925 126.322C147.143 126.313 147.143 126.151 146.925 126.146ZM141.662 117.35C139.165 117.231 136.716 118.402 135.344 119.882C134.025 121.306 132.895 123.314 132.952 125.504C132.952 125.566 133.071 125.57 133.08 125.504C133.712 121.377 137.485 117.774 141.662 117.483C141.747 117.474 141.747 117.355 141.662 117.35ZM123.36 107.802C119.145 107.711 114.252 109.168 111.608 112.609C111.504 112.743 111.698 112.885 111.822 112.824C115.647 110.882 119.278 109.439 123.431 108.326C123.721 108.245 123.659 107.807 123.36 107.802ZM126.602 109.097C122.387 109.006 117.494 110.463 114.85 113.904C114.746 114.037 114.94 114.18 115.064 114.118C118.889 112.176 122.52 110.734 126.673 109.62C126.962 109.539 126.905 109.101 126.602 109.097ZM129.848 110.391C125.633 110.301 120.74 111.757 118.096 115.199C117.992 115.332 118.187 115.475 118.31 115.413C122.135 113.471 125.766 112.029 129.919 110.915C130.209 110.834 130.147 110.396 129.848 110.391ZM133.09 111.686C128.875 111.596 123.982 113.052 121.338 116.493C121.234 116.627 121.424 116.769 121.552 116.708C125.377 114.766 129.008 113.323 133.161 112.21C133.451 112.129 133.394 111.691 133.09 111.686Z" fill="#1A1A35"/>
<path d="M86.23 114.114C81.5028 114.095 81.4648 121.463 86.1968 121.482C90.9288 121.501 90.9668 114.133 86.23 114.114Z" fill="white"/>
<path d="M127.997 96.564C125.871 94.7695 123.17 96.4783 121.846 98.3156C120.156 100.643 118.861 103.723 118.272 106.702C118.172 107.126 118.101 107.55 118.049 107.973C118.02 108.159 118.006 108.34 117.978 108.511C117.992 108.525 117.992 108.525 117.978 108.525C117.978 108.583 117.978 108.625 117.964 108.668C117.964 108.811 117.949 108.949 117.935 109.092C117.935 109.192 118.006 109.22 118.077 109.22C118.12 109.42 118.286 109.601 118.5 109.63C118.6 109.658 118.709 109.644 118.823 109.573C119.653 109.006 120.526 108.445 121.4 107.878C121.556 107.778 121.708 107.678 121.865 107.583C123.991 106.198 126.075 104.732 127.622 102.757C128.956 101.038 130 98.2442 127.997 96.564ZM122.762 105.498C122.06 106.008 121.338 106.488 120.636 106.979C120.028 107.402 119.411 107.84 118.818 108.292C118.747 108.335 118.675 108.392 118.609 108.449C118.538 108.506 118.452 108.564 118.386 108.621C118.414 108.535 118.443 108.464 118.471 108.383C118.471 108.368 118.486 108.368 118.486 108.354C118.685 107.802 118.88 107.255 119.079 106.702C119.587 105.236 120.118 103.78 120.811 102.38C121.276 101.419 121.77 100.434 122.359 99.5436C123.289 98.1442 127.456 94.6458 127.836 99.2485C128.04 101.786 124.494 104.242 122.762 105.498Z" fill="#1A1A35"/>
<path d="M118.846 108.844C118.903 108.802 118.918 108.73 118.861 108.673C118.775 108.602 118.69 108.516 118.609 108.449C118.581 108.421 118.538 108.378 118.509 108.364C118.495 108.349 118.495 108.335 118.481 108.349C118.338 108.207 118.201 108.083 118.044 107.969C117.494 107.502 116.919 107.079 116.312 106.683C113.991 105.103 111.257 103.918 108.694 103.409C106.482 102.956 103.345 103.537 102.994 106.288C102.98 106.388 102.98 106.488 102.98 106.569C102.851 108.997 105.4 110.253 107.455 110.577C109.61 110.929 111.793 110.72 113.972 110.377C115.491 110.139 117.014 109.839 118.49 109.616C118.505 109.616 118.505 109.616 118.519 109.616C118.903 109.568 118.989 109.144 118.846 108.844ZM112.895 109.311C110.768 109.563 106.487 110.172 104.926 108.154C104.446 107.531 104.209 107.026 104.152 106.588C103.829 104.442 107.797 104.327 109.15 104.656C110.189 104.908 111.219 105.289 112.221 105.689C112.966 105.984 113.697 106.312 114.418 106.679C115.614 107.259 116.796 107.892 117.978 108.516C117.978 108.516 117.992 108.516 117.992 108.53C118.063 108.559 118.149 108.602 118.215 108.645C118.13 108.659 118.044 108.659 117.964 108.673C117.764 108.687 117.555 108.702 117.356 108.73C115.866 108.887 114.385 109.13 112.895 109.311Z" fill="#1A1A35"/>
<path d="M147.808 284.554C145.61 285.273 82.7795 285.463 80.3969 283.926C79.4903 283.35 78.6407 272.997 79.5757 262.264L120.066 262.602C120.066 262.602 143.256 273.564 145.691 275.529C148.112 277.491 150.005 283.835 147.808 284.554Z" fill="#92400E"/>
<path d="M146.925 282.027C136.398 281.693 93.9142 281.341 83.4819 281.812C83.3965 281.817 83.3965 281.874 83.4819 281.879C93.9095 282.441 136.398 282.446 146.925 282.203C147.144 282.198 147.148 282.036 146.925 282.027ZM141.666 273.23C139.17 273.111 136.721 274.282 135.349 275.763C134.03 277.186 132.9 279.195 132.957 281.384C132.957 281.446 133.076 281.451 133.085 281.384C133.716 277.257 137.49 273.654 141.666 273.364C141.747 273.359 141.752 273.235 141.666 273.23ZM123.36 263.682C119.145 263.592 114.252 265.048 111.608 268.49C111.504 268.623 111.698 268.766 111.822 268.704C115.647 266.762 119.278 265.32 123.431 264.206C123.721 264.125 123.664 263.687 123.36 263.682ZM126.606 264.977C122.392 264.886 117.498 266.343 114.855 269.784C114.75 269.918 114.945 270.06 115.068 269.999C118.894 268.056 122.525 266.614 126.678 265.5C126.967 265.42 126.905 264.982 126.606 264.977ZM129.848 266.272C125.633 266.181 120.74 267.638 118.096 271.079C117.992 271.212 118.187 271.355 118.31 271.293C122.135 269.351 125.766 267.909 129.919 266.795C130.209 266.714 130.152 266.281 129.848 266.272ZM133.09 267.566C128.875 267.476 123.982 268.932 121.338 272.374C121.234 272.507 121.424 272.65 121.552 272.588C125.377 270.646 129.008 269.204 133.161 268.09C133.455 268.009 133.394 267.576 133.09 267.566ZM86.2348 271.802C81.5075 271.783 81.4695 279.152 86.2015 279.171C90.9288 279.19 90.9715 271.822 86.2348 271.802Z" fill="#1A1A35"/>
<path d="M128.002 252.439C125.876 250.645 123.175 252.368 121.851 254.191C120.161 256.533 118.865 259.613 118.277 262.592C118.177 263.016 118.106 263.439 118.054 263.849C118.039 264.034 118.011 264.215 117.982 264.387C117.997 264.401 117.982 264.401 117.982 264.401V264.544C117.968 264.701 117.954 264.839 117.94 264.982C117.94 265.067 118.011 265.11 118.082 265.096C118.125 265.296 118.291 265.477 118.505 265.505C118.604 265.534 118.713 265.52 118.827 265.448C119.658 264.882 120.531 264.32 121.405 263.754C121.561 263.668 121.699 263.568 121.855 263.473C123.982 262.088 126.08 260.622 127.627 258.632C128.956 256.914 130 254.134 128.002 252.439ZM122.762 261.378C122.059 261.888 121.338 262.383 120.636 262.873C120.028 263.297 119.44 263.72 118.846 264.158C118.761 264.215 118.675 264.287 118.609 264.344C118.538 264.401 118.452 264.458 118.386 264.515C118.414 264.43 118.443 264.344 118.471 264.263C118.486 264.249 118.486 264.249 118.486 264.234C118.685 263.682 118.88 263.149 119.065 262.597C119.587 261.131 120.118 259.674 120.811 258.261C121.276 257.299 121.77 256.314 122.359 255.424C123.289 254.039 127.456 250.54 127.836 255.143C128.045 257.666 124.494 260.136 122.762 261.378Z" fill="#1A1A35"/>
<path d="M118.851 264.739C118.908 264.696 118.922 264.625 118.865 264.553C118.78 264.468 118.694 264.396 118.614 264.344C118.585 264.287 118.543 264.258 118.514 264.244C118.5 264.23 118.5 264.215 118.486 264.23C118.343 264.073 118.206 263.963 118.049 263.849C117.513 263.382 116.938 262.959 116.345 262.578C114.024 261.012 111.276 259.813 108.699 259.289C106.487 258.837 103.35 259.417 102.999 262.169C102.984 262.269 102.984 262.369 102.984 262.464C102.87 264.877 105.405 266.134 107.46 266.472C109.615 266.809 111.822 266.6 114.005 266.262C115.51 266.024 117.019 265.724 118.495 265.501C118.509 265.501 118.509 265.501 118.524 265.501C118.908 265.443 118.989 265.02 118.851 264.739ZM112.894 265.191C110.768 265.458 106.487 266.053 104.926 264.049C104.446 263.425 104.209 262.921 104.152 262.483C103.829 260.336 107.797 260.222 109.15 260.55C110.189 260.788 111.219 261.183 112.221 261.569C112.98 261.864 113.711 262.202 114.447 262.573C115.643 263.154 116.796 263.787 117.978 264.396L117.992 264.411C118.063 264.453 118.149 264.482 118.215 264.525C118.13 264.525 118.058 264.539 117.978 264.553C117.769 264.568 117.57 264.582 117.361 264.61C115.866 264.768 114.39 265.005 112.894 265.191Z" fill="#1A1A35"/>
<path d="M147.808 364.291C145.61 365.01 82.7795 365.2 80.3969 363.663C79.4903 363.087 78.6407 341.982 79.5757 331.253L120.066 331.591C120.066 331.591 120.341 342.467 120.835 342.705C124.869 344.619 143.522 353.515 145.691 355.266C148.112 357.227 150.005 363.568 147.808 364.291Z" fill="#965817"/>
<path d="M146.925 361.764C136.398 361.43 93.9142 361.078 83.4819 361.549C83.3965 361.554 83.3965 361.611 83.4819 361.616C93.9094 362.178 136.398 362.182 146.925 361.94C147.143 361.93 147.148 361.768 146.925 361.764ZM141.666 352.967C139.17 352.848 136.721 354.019 135.349 355.5C134.03 356.923 132.9 358.931 132.957 361.121C132.957 361.183 133.076 361.188 133.085 361.121C133.716 356.994 137.49 353.391 141.666 353.101C141.747 353.096 141.752 352.972 141.666 352.967ZM121.537 335.542C117.66 333.885 112.576 333.409 108.846 335.613C108.704 335.699 108.822 335.903 108.965 335.889C113.236 335.513 117.138 335.532 121.409 336.051C121.708 336.089 121.817 335.661 121.537 335.542ZM121.95 338.902C118.073 337.246 112.989 336.77 109.259 338.973C109.116 339.059 109.235 339.264 109.378 339.249C113.649 338.873 117.551 338.892 121.822 339.411C122.121 339.449 122.226 339.021 121.95 338.902ZM122.359 342.262C118.481 340.606 113.398 340.13 109.667 342.334C109.525 342.419 109.643 342.624 109.786 342.61C114.057 342.234 117.959 342.253 122.23 342.772C122.529 342.81 122.639 342.381 122.359 342.262ZM87.9481 331.757C88.1332 333.995 88.2187 336.236 88.2899 338.474C88.3705 340.711 88.3848 342.953 88.3943 345.19C88.3848 347.427 88.3705 349.669 88.2899 351.906C88.2187 354.143 88.1332 356.385 87.9434 358.622C87.7583 356.385 87.6681 354.143 87.5969 351.906C87.5162 349.669 87.502 347.427 87.4925 345.19C87.502 342.953 87.5162 340.711 87.5969 338.474C87.6776 336.236 87.763 333.995 87.9481 331.757Z" fill="#1A1A35"/>
<path d="M147.808 207.03C145.61 207.749 82.7795 207.94 80.3969 206.402C79.4903 205.826 78.6407 169.628 79.5757 158.894L120.066 159.232C120.066 159.232 120.341 185.207 120.835 185.44C124.869 187.353 143.522 196.249 145.691 198.001C148.112 199.967 150.005 206.312 147.808 207.03Z" fill="#FF8300"/>
<path d="M147.808 207.03C145.61 207.749 82.7795 207.94 80.3969 206.402C79.4903 205.826 78.6407 169.628 79.5757 158.894L120.066 159.232C120.066 159.232 120.341 185.207 120.835 185.44C124.869 187.353 143.522 196.249 145.691 198.001C148.112 199.967 150.005 206.312 147.808 207.03Z" fill="#E39F57"/>
<path d="M146.925 204.503C136.398 204.17 93.9142 203.818 83.4819 204.289C83.3965 204.294 83.3965 204.351 83.4819 204.355C93.9094 204.917 136.398 204.922 146.925 204.679C147.148 204.674 147.148 204.513 146.925 204.503ZM141.666 195.707C139.17 195.588 136.721 196.759 135.349 198.239C134.03 199.662 132.9 201.671 132.957 203.86C132.957 203.922 133.076 203.927 133.085 203.86C133.716 199.734 137.49 196.13 141.666 195.84C141.747 195.835 141.752 195.712 141.666 195.707ZM121.442 178.476C117.612 176.71 112.548 176.082 108.756 178.176C108.609 178.257 108.727 178.467 108.865 178.457C113.141 178.205 117.047 178.338 121.3 178.981C121.599 179.024 121.718 178.6 121.442 178.476ZM121.756 181.846C117.925 180.08 112.861 179.452 109.069 181.546C108.922 181.627 109.04 181.837 109.178 181.827C113.455 181.575 117.361 181.708 121.613 182.351C121.912 182.398 122.031 181.975 121.756 181.846ZM121.158 175.101C117.327 173.336 112.263 172.707 108.471 174.802C108.324 174.883 108.442 175.092 108.58 175.082C112.856 174.83 116.763 174.963 121.015 175.606C121.314 175.654 121.433 175.23 121.158 175.101ZM120.859 171.731C117.028 169.966 111.964 169.337 108.172 171.432C108.025 171.513 108.143 171.722 108.281 171.712C112.557 171.46 116.464 171.593 120.716 172.236C121.011 172.279 121.129 171.855 120.859 171.731ZM120.555 168.357C116.725 166.591 111.66 165.963 107.868 168.057C107.721 168.138 107.84 168.347 107.977 168.338C112.258 168.085 116.16 168.219 120.413 168.861C120.712 168.909 120.83 168.485 120.555 168.357ZM120.256 164.987C116.426 163.221 111.361 162.593 107.569 164.687C107.422 164.768 107.541 164.977 107.678 164.968C111.955 164.715 115.861 164.849 120.114 165.491C120.413 165.539 120.531 165.115 120.256 164.987ZM122.069 185.221C118.239 183.455 113.174 182.827 109.382 184.921C109.235 185.002 109.354 185.211 109.491 185.202C113.768 184.95 117.674 185.083 121.927 185.725C122.226 185.768 122.344 185.345 122.069 185.221ZM87.9481 158.966C88.1332 162.497 88.2187 166.034 88.2899 169.566C88.3658 173.098 88.3563 176.634 88.3943 180.166C88.3611 183.698 88.361 187.234 88.2899 190.766C88.2187 194.298 88.1332 197.834 87.9434 201.366C87.7583 197.834 87.6681 194.298 87.5969 190.766C87.5257 187.234 87.5305 183.698 87.4925 180.166C87.5305 176.634 87.521 173.098 87.5969 169.566C87.6776 166.034 87.763 162.497 87.9481 158.966Z" fill="#1A1A35"/>
<path d="M477.602 158.779V156.48L197.44 156.48V158.779L477.602 158.779Z" fill="#FDE68A"/>
<path d="M293.096 169.237C293.096 169.237 306.66 161.878 321.977 169.237L328.693 186.139L330.605 327.726L309.969 329.316H305.108L289.712 324.361L280.395 212.219L282.037 185.83L293.096 169.237Z" fill="#FFB05D"/>
<path opacity="0.3" d="M293.096 169.237C293.096 169.237 306.66 161.878 321.977 169.237L328.693 186.139L330.605 327.726L309.969 329.316H305.108L289.712 324.361L280.395 212.219L282.037 185.83L293.096 169.237Z" fill="black"/>
<path d="M293.096 169.237C293.096 169.237 306.66 161.878 321.977 169.237L328.693 186.139L330.605 327.726L309.969 329.316H305.108L289.712 324.361L280.395 212.219L282.037 185.83L293.096 169.237Z" fill="#FFB05D"/>
<path d="M293.096 169.237C293.096 169.237 306.66 161.878 321.977 169.237L328.693 186.139L330.605 327.726L309.969 329.316H305.108L289.712 324.361L280.395 212.219L282.037 185.83L293.096 169.237Z" fill="#D89E60"/>
<path d="M335.124 181.575H280.048L280.115 180.966C280.134 180.78 280.651 176.401 282.763 174.982C284.719 173.669 292.113 171.227 292.488 171.103L309.091 165.349L309.28 165.425C311.597 166.362 331.953 174.611 333.586 176.191C335.788 178.329 335.238 181.027 335.214 181.142L335.124 181.575ZM281.292 180.48H334.203C334.241 179.752 334.141 178.243 332.831 176.977C331.721 175.901 318.085 170.161 309.067 166.515L292.839 172.141C292.763 172.165 285.217 174.654 283.375 175.892C282.17 176.701 281.529 179.095 281.292 180.48Z" fill="#1A1A35"/>
<path d="M309.551 166.2L308.602 165.663C308.621 165.629 310.557 162.145 310.22 158.861C310.14 158.071 309.855 157.514 309.352 157.157C308.288 156.4 306.589 156.795 306.575 156.8L306.319 155.738C306.409 155.719 308.507 155.22 309.978 156.262C310.742 156.805 311.193 157.642 311.307 158.751C311.682 162.383 309.641 166.048 309.551 166.2Z" fill="#1A1A35"/>
<path d="M372.016 279.137C372.016 279.137 349.249 203.865 346.999 198.596C344.749 193.327 337.744 176.515 328.232 171.998L321.977 169.237C321.977 169.237 325.479 185.045 320.477 195.331C315.474 205.617 309.219 237.989 308.716 249.027C308.217 260.065 309.969 329.32 309.969 329.32L348.997 326.307L348.499 288.671L372.016 279.137Z" fill="#FFB05D"/>
<path d="M348.518 289.975C348.499 289.975 348.475 289.742 348.451 289.295C348.432 288.79 348.404 288.143 348.375 287.348C348.342 285.658 348.223 283.212 348.095 280.194C347.796 274.154 347.146 265.829 346.187 256.652C345.229 247.475 344.17 239.183 343.453 233.176C343.093 230.173 342.822 227.74 342.666 226.056C342.58 225.213 342.547 224.556 342.514 224.113C342.485 223.671 342.485 223.433 342.504 223.433C342.523 223.433 342.566 223.661 342.628 224.104C342.694 224.604 342.779 225.246 342.884 226.032C343.121 227.779 343.449 230.187 343.852 233.129C344.668 239.121 345.793 247.408 346.752 256.595C347.716 265.781 348.299 274.125 348.499 280.18C348.575 283.207 348.636 285.654 348.603 287.348C348.589 288.143 348.579 288.79 348.575 289.295C348.551 289.742 348.537 289.975 348.518 289.975ZM340.852 254.591C340.843 254.6 340.691 254.615 340.411 254.624C340.084 254.634 339.68 254.648 339.187 254.662C338.071 254.681 336.562 254.715 334.678 254.748L334.839 254.567C335.646 260.798 336.927 271.26 338.318 283.117L338.361 283.478L338.057 283.226C340.084 283.055 342.068 282.888 343.976 282.726L343.719 283.002C343.733 278.947 343.42 275.134 343.074 271.707C342.723 268.28 342.329 265.239 341.982 262.706C341.626 260.226 341.337 258.213 341.128 256.747C341.033 256.095 340.957 255.567 340.9 255.143C340.852 254.781 340.848 254.615 340.852 254.591C340.857 254.567 340.924 254.776 341.004 255.133C341.09 255.552 341.199 256.076 341.327 256.723C341.593 258.108 341.954 260.131 342.348 262.663C342.741 265.196 343.178 268.237 343.563 271.669C343.942 275.101 344.279 278.923 344.279 283.021V283.274L344.023 283.297C342.11 283.464 340.131 283.631 338.104 283.807L337.829 283.831L337.796 283.554L337.753 283.193C336.358 271.336 335.176 260.86 334.516 254.615L334.497 254.429L334.678 254.434C336.595 254.472 338.133 254.5 339.267 254.519C339.747 254.534 340.141 254.548 340.459 254.557C340.729 254.567 340.862 254.581 340.852 254.591ZM308.625 246.056C308.611 246.042 308.806 245.795 309.19 245.338C309.56 244.871 310.173 244.238 310.861 243.334C312.29 241.577 314.245 238.936 316.533 235.594C318.816 232.243 321.412 228.169 324.146 223.557C325.503 221.243 326.922 218.811 328.313 216.25C329.694 213.689 331.156 211.024 332.342 208.201C333.192 206.65 332.195 205.003 331.332 203.627C330.396 202.232 329.291 200.971 328.151 199.824L327.449 199.12L328.408 199.358C330.98 199.991 333.458 200.6 335.821 201.181L335.551 201.276C336.685 199.729 337.084 197.811 337.236 196.03C337.392 194.236 337.279 192.503 337.112 190.885C336.747 187.644 336.078 184.84 335.461 182.551C334.834 180.261 334.236 178.471 333.795 177.267C333.363 176.053 333.05 175.439 333.05 175.439C333.097 175.401 333.467 176.01 333.951 177.205C334.445 178.4 335.091 180.175 335.764 182.465C336.429 184.754 337.141 187.563 337.544 190.837C337.729 192.475 337.867 194.226 337.72 196.073C337.573 197.896 337.193 199.9 335.969 201.595L335.869 201.733L335.698 201.69C333.33 201.119 330.852 200.519 328.28 199.895L328.536 199.424C329.713 200.6 330.828 201.866 331.801 203.313C332.276 204.036 332.727 204.808 333.016 205.674C333.088 205.893 333.159 206.107 333.187 206.345C333.239 206.573 333.258 206.811 333.235 207.059C333.254 207.311 333.159 207.525 333.097 207.754C333.031 207.982 332.964 208.211 332.874 208.406C331.659 211.3 330.197 213.942 328.802 216.517C327.397 219.082 325.968 221.515 324.597 223.823C321.834 228.431 319.2 232.491 316.865 235.818C314.53 239.14 312.522 241.753 311.032 243.472C310.315 244.357 309.674 244.966 309.276 245.414C308.863 245.847 308.64 246.066 308.625 246.056Z" fill="#1A1A35"/>
<path d="M372.016 279.137C372.016 279.137 349.249 203.865 346.999 198.596C344.749 193.327 337.744 176.515 328.232 171.998L321.977 169.237C321.977 169.237 325.479 185.045 320.477 195.331C315.474 205.617 309.219 237.989 308.716 249.027C308.217 260.065 309.969 329.32 309.969 329.32L348.997 326.307L348.499 288.671L372.016 279.137Z" fill="#E8B279"/>
<path d="M348.518 289.975C348.499 289.975 348.475 289.742 348.451 289.295C348.432 288.79 348.404 288.143 348.375 287.348C348.342 285.658 348.223 283.212 348.095 280.194C347.796 274.154 347.146 265.829 346.187 256.652C345.229 247.475 344.17 239.183 343.453 233.176C343.093 230.173 342.822 227.74 342.666 226.056C342.58 225.213 342.547 224.556 342.514 224.113C342.485 223.671 342.485 223.433 342.504 223.433C342.523 223.433 342.566 223.661 342.628 224.104C342.694 224.604 342.779 225.246 342.884 226.032C343.121 227.779 343.449 230.187 343.852 233.129C344.668 239.121 345.793 247.408 346.752 256.595C347.716 265.781 348.299 274.125 348.499 280.18C348.575 283.207 348.636 285.654 348.603 287.348C348.589 288.143 348.579 288.79 348.575 289.295C348.551 289.742 348.537 289.975 348.518 289.975ZM340.852 254.591C340.843 254.6 340.691 254.615 340.411 254.624C340.084 254.634 339.68 254.648 339.187 254.662C338.071 254.681 336.562 254.715 334.678 254.748L334.839 254.567C335.646 260.798 336.927 271.26 338.318 283.117L338.361 283.478L338.057 283.226C340.084 283.055 342.068 282.888 343.976 282.726L343.719 283.002C343.733 278.947 343.42 275.134 343.074 271.707C342.723 268.28 342.329 265.239 341.982 262.706C341.626 260.226 341.337 258.213 341.128 256.747C341.033 256.095 340.957 255.567 340.9 255.143C340.852 254.781 340.848 254.615 340.852 254.591C340.857 254.567 340.924 254.776 341.004 255.133C341.09 255.552 341.199 256.076 341.327 256.723C341.593 258.108 341.954 260.131 342.348 262.663C342.741 265.196 343.178 268.237 343.563 271.669C343.942 275.101 344.279 278.923 344.279 283.021V283.274L344.023 283.297C342.11 283.464 340.131 283.631 338.104 283.807L337.829 283.831L337.796 283.554L337.753 283.193C336.358 271.336 335.176 260.86 334.516 254.615L334.497 254.429L334.678 254.434C336.595 254.472 338.133 254.5 339.267 254.519C339.747 254.534 340.141 254.548 340.459 254.557C340.729 254.567 340.862 254.581 340.852 254.591ZM308.625 246.056C308.611 246.042 308.806 245.795 309.19 245.338C309.56 244.871 310.173 244.238 310.861 243.334C312.29 241.577 314.245 238.936 316.533 235.594C318.816 232.243 321.412 228.169 324.146 223.557C325.503 221.243 326.922 218.811 328.313 216.25C329.694 213.689 331.156 211.024 332.342 208.201C333.192 206.65 332.195 205.003 331.332 203.627C330.396 202.232 329.291 200.971 328.151 199.824L327.449 199.12L328.408 199.358C330.98 199.991 333.458 200.6 335.821 201.181L335.551 201.276C336.685 199.729 337.084 197.811 337.236 196.03C337.392 194.236 337.279 192.503 337.112 190.885C336.747 187.644 336.078 184.84 335.461 182.551C334.834 180.261 334.236 178.471 333.795 177.267C333.363 176.053 333.05 175.439 333.05 175.439C333.097 175.401 333.467 176.01 333.951 177.205C334.445 178.4 335.091 180.175 335.764 182.465C336.429 184.754 337.141 187.563 337.544 190.837C337.729 192.475 337.867 194.226 337.72 196.073C337.573 197.896 337.193 199.9 335.969 201.595L335.869 201.733L335.698 201.69C333.33 201.119 330.852 200.519 328.28 199.895L328.536 199.424C329.713 200.6 330.828 201.866 331.801 203.313C332.276 204.036 332.727 204.808 333.016 205.674C333.088 205.893 333.159 206.107 333.187 206.345C333.239 206.573 333.258 206.811 333.235 207.059C333.254 207.311 333.159 207.525 333.097 207.754C333.031 207.982 332.964 208.211 332.874 208.406C331.659 211.3 330.197 213.942 328.802 216.517C327.397 219.082 325.968 221.515 324.597 223.823C321.834 228.431 319.2 232.491 316.865 235.818C314.53 239.14 312.522 241.753 311.032 243.472C310.315 244.357 309.674 244.966 309.276 245.414C308.863 245.847 308.64 246.066 308.625 246.056Z" fill="#1A1A35"/>
<path d="M243.056 279.137C243.056 279.137 265.824 203.865 268.073 198.596C270.323 193.327 277.329 176.515 286.84 171.998L293.096 169.237C293.096 169.237 289.593 185.045 294.595 195.331C299.598 205.617 305.854 237.989 306.357 249.027C306.855 260.065 305.104 329.32 305.104 329.32L266.075 326.307L266.574 288.671L243.056 279.137Z" fill="#E8B279"/>
<path d="M266.559 289.976C266.54 289.976 266.521 289.742 266.512 289.295C266.502 288.79 266.493 288.143 266.483 287.348C266.45 285.654 266.507 283.207 266.588 280.18C266.782 274.13 267.371 265.781 268.334 256.595C269.293 247.408 270.418 239.121 271.234 233.129C271.638 230.187 271.965 227.779 272.203 226.032C272.307 225.242 272.392 224.604 272.459 224.104C272.521 223.661 272.563 223.433 272.582 223.433C272.601 223.433 272.597 223.671 272.573 224.114C272.544 224.556 272.506 225.218 272.421 226.056C272.264 227.741 271.994 230.178 271.633 233.176C270.916 239.183 269.858 247.47 268.899 256.652C267.936 265.829 267.29 274.154 266.991 280.194C266.863 283.212 266.744 285.658 266.711 287.348C266.678 288.143 266.654 288.79 266.635 289.295C266.602 289.742 266.578 289.976 266.559 289.976ZM274.225 254.591C274.215 254.581 274.348 254.567 274.614 254.558C274.932 254.548 275.326 254.534 275.805 254.52C276.939 254.5 278.482 254.467 280.395 254.434L280.575 254.429L280.556 254.615C279.896 260.86 278.714 271.336 277.319 283.193L277.276 283.555L277.243 283.831L276.968 283.807C274.941 283.631 272.957 283.459 271.049 283.298L270.793 283.274V283.021C270.788 278.923 271.13 275.101 271.51 271.669C271.894 268.237 272.331 265.196 272.725 262.664C273.123 260.131 273.479 258.113 273.745 256.723C273.878 256.076 273.982 255.552 274.068 255.134C274.149 254.777 274.215 254.567 274.225 254.591C274.229 254.615 274.225 254.781 274.172 255.153C274.111 255.571 274.035 256.105 273.944 256.757C273.736 258.223 273.446 260.236 273.09 262.716C272.744 265.253 272.35 268.295 271.999 271.717C271.652 275.139 271.339 278.957 271.353 283.012L271.097 282.736C273.009 282.898 274.989 283.064 277.015 283.236L276.712 283.488L276.754 283.126C278.15 271.269 279.426 260.803 280.233 254.577L280.395 254.757C278.515 254.719 277.001 254.691 275.886 254.672C275.392 254.658 274.993 254.643 274.661 254.634C274.381 254.615 274.234 254.6 274.225 254.591ZM306.447 246.057C306.433 246.071 306.21 245.847 305.797 245.414C305.398 244.971 304.757 244.357 304.041 243.472C302.555 241.754 300.547 239.14 298.207 235.818C295.877 232.491 293.243 228.431 290.476 223.823C289.104 221.515 287.671 219.082 286.271 216.517C284.875 213.947 283.413 211.3 282.198 208.406C282.103 208.206 282.037 207.982 281.975 207.754C281.913 207.526 281.819 207.307 281.838 207.059C281.819 206.812 281.833 206.574 281.89 206.345C281.918 206.107 281.989 205.893 282.061 205.674C282.35 204.808 282.796 204.041 283.276 203.313C284.249 201.871 285.364 200.6 286.541 199.424L286.797 199.896C284.225 200.519 281.743 201.119 279.379 201.69L279.208 201.733L279.108 201.595C277.884 199.9 277.504 197.901 277.357 196.073C277.21 194.227 277.343 192.475 277.533 190.838C277.936 187.563 278.648 184.759 279.313 182.465C279.986 180.175 280.632 178.4 281.126 177.205C281.61 176.011 281.98 175.401 282.027 175.439C282.027 175.439 281.714 176.053 281.282 177.267C280.841 178.476 280.243 180.261 279.616 182.551C278.999 184.84 278.33 187.644 277.965 190.885C277.798 192.503 277.68 194.236 277.841 196.031C277.993 197.806 278.392 199.724 279.526 201.276L279.256 201.181C281.619 200.6 284.097 199.991 286.669 199.358L287.628 199.12L286.926 199.824C285.786 200.966 284.681 202.233 283.746 203.627C282.882 205.003 281.885 206.65 282.735 208.201C283.921 211.024 285.383 213.69 286.764 216.25C288.155 218.811 289.574 221.243 290.931 223.557C293.665 228.169 296.261 232.243 298.544 235.594C300.832 238.941 302.788 241.577 304.216 243.334C304.904 244.238 305.517 244.871 305.887 245.338C306.267 245.795 306.461 246.042 306.447 246.057Z" fill="#1A1A35"/>
<path d="M400.038 167.533C400.038 167.533 412.084 160.998 425.678 167.533L431.644 182.541L433.338 354.524L415.018 355.938H410.703L397.034 351.54L388.766 205.693L390.223 182.265L400.038 167.533Z" fill="#FFB05D"/>
<path opacity="0.3" d="M400.038 167.533C400.038 167.533 412.084 160.998 425.678 167.533L431.644 182.541L433.338 354.524L415.018 355.938H410.703L397.034 351.54L388.766 205.693L390.223 182.265L400.038 167.533Z" fill="black"/>
<path d="M400.038 167.533C400.038 167.533 412.084 160.998 425.678 167.533L431.644 182.541L433.338 354.524L415.018 355.938H410.703L397.034 351.54L388.766 205.693L390.223 182.265L400.038 167.533Z" fill="#E1E1E1"/>
<path d="M400.038 167.533C400.038 167.533 412.084 160.998 425.678 167.533L431.644 182.541L433.338 354.524L415.018 355.938H410.703L397.034 351.54L388.766 205.693L390.223 182.265L400.038 167.533Z" fill="#DDC1A4"/>
<path d="M437.344 178.486H388.453L388.514 177.948C388.533 177.781 388.989 173.897 390.864 172.636C392.601 171.47 399.165 169.304 399.497 169.19L414.234 164.082L414.401 164.149C416.456 164.977 434.529 172.303 435.977 173.707C437.932 175.601 437.444 178 437.425 178.105L437.344 178.486ZM389.554 177.515H436.523C436.556 176.867 436.466 175.53 435.308 174.402C434.321 173.445 422.218 168.352 414.211 165.115L399.806 170.108C399.739 170.132 393.038 172.341 391.405 173.44C390.337 174.154 389.767 176.287 389.554 177.515Z" fill="#1A1A35"/>
<path d="M414.647 164.839L413.807 164.363C413.826 164.335 415.544 161.241 415.245 158.328C415.174 157.628 414.918 157.133 414.476 156.814C413.532 156.143 412.023 156.495 412.008 156.495L411.781 155.553C411.861 155.534 413.722 155.091 415.032 156.014C415.71 156.495 416.109 157.238 416.209 158.223C416.536 161.45 414.723 164.701 414.647 164.839Z" fill="#1A1A35"/>
<path d="M470.098 265.096C470.098 265.096 449.884 198.272 447.885 193.593C445.887 188.915 439.665 173.992 431.226 169.98L425.673 167.529C425.673 167.529 428.782 181.561 424.339 190.695C419.897 199.829 414.344 228.564 413.902 238.365C413.456 248.165 415.013 355.933 415.013 355.933L449.66 353.258L449.214 273.559L470.098 265.096Z" fill="#FFE6CC"/>
<path d="M449.238 274.72C449.219 274.72 449.2 274.511 449.181 274.116C449.162 273.668 449.143 273.092 449.115 272.388C449.086 270.889 448.977 268.718 448.863 266.038C448.597 260.679 448.023 253.287 447.169 245.138C446.319 236.989 445.379 229.63 444.743 224.299C444.421 221.634 444.183 219.473 444.041 217.978C443.965 217.231 443.932 216.645 443.908 216.25C443.884 215.855 443.879 215.646 443.898 215.646C443.917 215.646 443.955 215.851 444.008 216.241C444.065 216.688 444.141 217.255 444.235 217.954C444.449 219.506 444.739 221.643 445.095 224.256C445.821 229.578 446.817 236.932 447.667 245.09C448.521 253.244 449.043 260.655 449.214 266.029C449.286 268.713 449.333 270.889 449.304 272.393C449.295 273.102 449.286 273.673 449.276 274.125C449.267 274.511 449.252 274.72 449.238 274.72ZM442.432 243.305C442.422 243.315 442.29 243.324 442.038 243.339C441.748 243.348 441.388 243.358 440.951 243.372C439.964 243.391 438.621 243.415 436.95 243.448L437.092 243.286C437.809 248.817 438.943 258.108 440.182 268.633L440.22 268.956L439.95 268.732C441.748 268.58 443.509 268.433 445.204 268.29L444.976 268.533C444.99 264.934 444.71 261.545 444.406 258.508C444.093 255.467 443.747 252.768 443.438 250.517C443.12 248.313 442.864 246.528 442.679 245.228C442.593 244.648 442.527 244.176 442.475 243.805C442.432 243.477 442.427 243.329 442.432 243.305C442.437 243.282 442.498 243.472 442.565 243.786C442.641 244.157 442.736 244.624 442.854 245.195C443.092 246.428 443.41 248.218 443.761 250.469C444.112 252.716 444.501 255.414 444.838 258.461C445.175 261.507 445.474 264.901 445.474 268.537V268.761L445.246 268.78C443.552 268.928 441.791 269.08 439.992 269.232L439.75 269.251L439.722 269.009L439.684 268.685C438.445 258.156 437.396 248.86 436.812 243.31L436.793 243.148L436.955 243.153C438.654 243.186 440.026 243.21 441.032 243.229C441.459 243.243 441.805 243.253 442.09 243.263C442.323 243.286 442.441 243.296 442.432 243.305ZM413.826 235.728C413.812 235.713 413.988 235.494 414.329 235.09C414.662 234.676 415.203 234.114 415.815 233.31C417.082 231.748 418.819 229.407 420.851 226.436C422.877 223.462 425.179 219.844 427.609 215.751C428.815 213.699 430.073 211.538 431.311 209.263C432.541 206.988 433.836 204.622 434.89 202.118C435.645 200.743 434.762 199.282 433.993 198.058C433.162 196.821 432.18 195.697 431.169 194.684L430.547 194.055L431.397 194.265C433.68 194.826 435.877 195.369 437.975 195.883L437.738 195.969C438.744 194.593 439.1 192.894 439.233 191.314C439.375 189.719 439.271 188.182 439.124 186.744C438.801 183.869 438.208 181.38 437.657 179.347C437.102 177.315 436.57 175.73 436.176 174.654C435.792 173.578 435.512 173.031 435.512 173.031C435.555 172.998 435.882 173.54 436.314 174.602C436.751 175.663 437.325 177.239 437.923 179.271C438.511 181.304 439.147 183.798 439.503 186.701C439.67 188.153 439.788 189.709 439.66 191.352C439.532 192.97 439.19 194.75 438.103 196.254L438.013 196.378L437.861 196.34C435.759 195.831 433.561 195.302 431.273 194.75L431.501 194.331C432.545 195.374 433.537 196.502 434.401 197.782C434.824 198.425 435.222 199.105 435.479 199.877C435.54 200.067 435.607 200.262 435.631 200.472C435.678 200.676 435.692 200.886 435.673 201.105C435.687 201.328 435.607 201.519 435.55 201.723C435.493 201.928 435.431 202.128 435.35 202.304C434.273 204.87 432.973 207.221 431.734 209.506C430.49 211.786 429.218 213.942 427.999 215.993C425.545 220.082 423.205 223.69 421.135 226.646C419.061 229.597 417.277 231.915 415.957 233.443C415.321 234.228 414.752 234.771 414.401 235.166C414.035 235.542 413.836 235.742 413.826 235.728Z" fill="#1A1A35"/>
<path d="M449.238 274.72C449.219 274.72 449.2 274.511 449.181 274.116C449.162 273.668 449.143 273.092 449.115 272.388C449.086 270.889 448.977 268.718 448.863 266.038C448.597 260.679 448.023 253.287 447.169 245.138C446.319 236.989 445.379 229.63 444.743 224.299C444.421 221.634 444.183 219.473 444.041 217.978C443.965 217.231 443.932 216.645 443.908 216.25C443.884 215.855 443.879 215.646 443.898 215.646C443.917 215.646 443.955 215.851 444.008 216.241C444.065 216.688 444.141 217.255 444.235 217.954C444.449 219.506 444.739 221.643 445.095 224.256C445.821 229.578 446.817 236.932 447.667 245.09C448.521 253.244 449.043 260.655 449.214 266.029C449.286 268.713 449.333 270.889 449.304 272.393C449.295 273.102 449.286 273.673 449.276 274.125C449.267 274.511 449.252 274.72 449.238 274.72ZM442.432 243.305C442.422 243.315 442.29 243.324 442.038 243.339C441.748 243.348 441.388 243.358 440.951 243.372C439.964 243.391 438.621 243.415 436.95 243.448L437.092 243.286C437.809 248.817 438.943 258.108 440.182 268.633L440.22 268.956L439.95 268.732C441.748 268.58 443.509 268.433 445.204 268.29L444.976 268.533C444.99 264.934 444.71 261.545 444.406 258.508C444.093 255.467 443.747 252.768 443.438 250.517C443.12 248.313 442.864 246.528 442.679 245.228C442.593 244.648 442.527 244.176 442.475 243.805C442.432 243.477 442.427 243.329 442.432 243.305C442.437 243.282 442.498 243.472 442.565 243.786C442.641 244.157 442.736 244.624 442.854 245.195C443.092 246.428 443.41 248.218 443.761 250.469C444.112 252.716 444.501 255.414 444.838 258.461C445.175 261.507 445.474 264.901 445.474 268.537V268.761L445.246 268.78C443.552 268.928 441.791 269.08 439.992 269.232L439.75 269.251L439.722 269.009L439.684 268.685C438.445 258.156 437.396 248.86 436.812 243.31L436.793 243.148L436.955 243.153C438.654 243.186 440.026 243.21 441.032 243.229C441.459 243.243 441.805 243.253 442.09 243.263C442.323 243.286 442.441 243.296 442.432 243.305ZM413.826 235.728C413.812 235.713 413.988 235.494 414.329 235.09C414.662 234.676 415.203 234.114 415.815 233.31C417.082 231.748 418.819 229.407 420.851 226.436C422.877 223.462 425.179 219.844 427.609 215.751C428.815 213.699 430.073 211.538 431.311 209.263C432.541 206.988 433.836 204.622 434.89 202.118C435.645 200.743 434.762 199.282 433.993 198.058C433.162 196.821 432.18 195.697 431.169 194.684L430.547 194.055L431.397 194.265C433.68 194.826 435.877 195.369 437.975 195.883L437.738 195.969C438.744 194.593 439.1 192.894 439.233 191.314C439.375 189.719 439.271 188.182 439.124 186.744C438.801 183.869 438.208 181.38 437.657 179.347C437.102 177.315 436.57 175.73 436.176 174.654C435.792 173.578 435.512 173.031 435.512 173.031C435.555 172.998 435.882 173.54 436.314 174.602C436.751 175.663 437.325 177.239 437.923 179.271C438.511 181.304 439.147 183.798 439.503 186.701C439.67 188.153 439.788 189.709 439.66 191.352C439.532 192.97 439.19 194.75 438.103 196.254L438.013 196.378L437.861 196.34C435.759 195.831 433.561 195.302 431.273 194.75L431.501 194.331C432.545 195.374 433.537 196.502 434.401 197.782C434.824 198.425 435.222 199.105 435.479 199.877C435.54 200.067 435.607 200.262 435.631 200.472C435.678 200.676 435.692 200.886 435.673 201.105C435.687 201.328 435.607 201.519 435.55 201.723C435.493 201.928 435.431 202.128 435.35 202.304C434.273 204.87 432.973 207.221 431.734 209.506C430.49 211.786 429.218 213.942 427.999 215.993C425.545 220.082 423.205 223.69 421.135 226.646C419.061 229.597 417.277 231.915 415.957 233.443C415.321 234.228 414.752 234.771 414.401 235.166C414.035 235.542 413.836 235.742 413.826 235.728Z" fill="#1A1A35"/>
<path d="M355.613 265.096C355.613 265.096 375.828 198.272 377.826 193.593C379.824 188.915 386.046 173.992 394.485 169.98L400.038 167.529C400.038 167.529 396.93 181.561 401.372 190.695C405.815 199.829 411.368 228.564 411.814 238.365C412.26 248.165 410.703 355.933 410.703 355.933L376.056 353.258L376.502 273.559L355.613 265.096Z" fill="#FFE6CC"/>
<path d="M376.478 274.72C376.459 274.72 376.445 274.511 376.435 274.116C376.43 273.668 376.421 273.092 376.407 272.383C376.378 270.879 376.43 268.704 376.497 266.019C376.673 260.646 377.19 253.234 378.044 245.081C378.894 236.922 379.89 229.568 380.617 224.247C380.973 221.634 381.262 219.501 381.476 217.945C381.571 217.245 381.647 216.679 381.704 216.231C381.761 215.841 381.798 215.636 381.813 215.636C381.832 215.636 381.827 215.846 381.803 216.241C381.775 216.636 381.746 217.221 381.67 217.969C381.533 219.463 381.291 221.624 380.968 224.29C380.332 229.621 379.392 236.98 378.543 245.128C377.688 253.272 377.114 260.669 376.848 266.029C376.734 268.709 376.63 270.879 376.597 272.379C376.568 273.083 376.544 273.659 376.53 274.106C376.516 274.511 376.497 274.72 376.478 274.72ZM383.279 243.305C383.27 243.296 383.388 243.286 383.626 243.272C383.911 243.263 384.257 243.253 384.684 243.239C385.69 243.22 387.057 243.196 388.761 243.163L388.923 243.158L388.904 243.32C388.32 248.865 387.266 258.166 386.032 268.694L385.994 269.018L385.966 269.261L385.724 269.242C383.925 269.085 382.164 268.937 380.47 268.79L380.242 268.771V268.547C380.237 264.91 380.541 261.517 380.878 258.47C381.219 255.424 381.609 252.725 381.955 250.478C382.306 248.232 382.624 246.437 382.862 245.205C382.98 244.629 383.075 244.162 383.151 243.796C383.218 243.472 383.275 243.286 383.279 243.305C383.284 243.329 383.279 243.477 383.237 243.805C383.184 244.176 383.113 244.648 383.032 245.228C382.847 246.528 382.591 248.317 382.273 250.517C381.965 252.768 381.618 255.467 381.305 258.508C380.996 261.55 380.721 264.934 380.735 268.533L380.508 268.29C382.202 268.433 383.963 268.58 385.762 268.732L385.491 268.956L385.529 268.633C386.768 258.104 387.902 248.817 388.619 243.286L388.761 243.448C387.091 243.415 385.747 243.391 384.76 243.372C384.323 243.358 383.967 243.348 383.673 243.339C383.422 243.324 383.289 243.315 383.279 243.305ZM411.89 235.728C411.876 235.742 411.681 235.542 411.315 235.161C410.96 234.766 410.39 234.224 409.754 233.438C408.434 231.91 406.65 229.592 404.576 226.641C402.506 223.685 400.167 220.082 397.713 215.989C396.493 213.937 395.226 211.781 393.977 209.501C392.739 207.216 391.443 204.87 390.361 202.299C390.28 202.123 390.218 201.923 390.161 201.719C390.109 201.514 390.024 201.324 390.038 201.1C390.019 200.881 390.038 200.671 390.081 200.467C390.104 200.257 390.166 200.062 390.233 199.872C390.489 199.101 390.888 198.42 391.31 197.777C392.174 196.497 393.166 195.369 394.21 194.327L394.438 194.745C392.155 195.298 389.953 195.831 387.85 196.335L387.698 196.373L387.608 196.25C386.521 194.745 386.184 192.97 386.051 191.347C385.918 189.709 386.042 188.148 386.208 186.697C386.564 183.793 387.2 181.299 387.788 179.266C388.386 177.234 388.961 175.658 389.397 174.597C389.824 173.536 390.157 172.998 390.199 173.026C390.199 173.026 389.924 173.574 389.535 174.649C389.141 175.72 388.614 177.305 388.054 179.343C387.508 181.375 386.91 183.864 386.587 186.739C386.44 188.177 386.336 189.714 386.478 191.309C386.616 192.889 386.967 194.588 387.973 195.964L387.736 195.878C389.834 195.359 392.031 194.822 394.314 194.26L395.164 194.05L394.542 194.679C393.531 195.693 392.549 196.816 391.718 198.053C390.949 199.277 390.066 200.738 390.821 202.114C391.875 204.617 393.171 206.983 394.4 209.258C395.634 211.533 396.896 213.69 398.102 215.746C400.527 219.839 402.834 223.457 404.861 226.432C406.892 229.402 408.624 231.744 409.896 233.305C410.504 234.105 411.05 234.666 411.382 235.085C411.728 235.494 411.904 235.718 411.89 235.728Z" fill="#1A1A35"/>
<path d="M216.557 191.589C236.421 193.827 246.782 201.442 255.671 200.343C264.561 199.243 289.75 184.569 289.75 184.569L298.763 191.775C298.763 191.775 277.238 214.813 251.442 217.464C236.876 218.959 221.209 218.882 221.209 218.882" fill="#F2D3B3"/>
<path d="M216.605 191.594C236.743 194.607 247.313 198.087 256.203 196.987C265.093 195.888 276.422 191.337 276.422 191.337L285.578 205.36C285.578 205.36 273.608 217.069 251.87 219.639C238.955 221.167 221.252 218.887 221.252 218.887" fill="#FE9526"/>
<path d="M278.629 189.786L271.514 193.355L282.773 210.02L289.194 202.432L278.629 189.786Z" fill="#FE9526"/>
<path d="M292.403 192.056C295.108 192.351 297.894 192.17 300.457 191.261C303.02 190.352 305.355 188.681 306.827 186.382C307.297 185.654 307.676 184.859 307.871 184.017C307.937 183.736 307.97 183.407 307.785 183.188C307.482 182.827 306.898 183.036 306.499 183.293C305.773 183.764 305.071 184.321 304.226 184.512C300.139 185.426 303.509 180.275 304.306 179.147C305.892 176.896 307.866 174.763 309.057 172.265C309.328 171.698 309.494 171.265 309.205 170.703C308.146 168.633 301.501 176.472 301.06 177.01C300.467 176.168 299.309 175.93 298.288 176.03C297.268 176.13 296.28 176.491 295.26 176.577C294.714 176.625 294.159 176.591 293.623 176.71C292.222 177.024 291.245 178.3 290.632 179.604C289.152 182.746 289.133 186.539 290.575 189.695" fill="#F2D3B3"/>
<path d="M212.015 428.178C207.502 434.446 207.715 444.809 210.568 445.856C212.253 446.475 246.468 447.588 246.967 445.584C249.43 435.694 221.176 429.925 221.176 429.925" fill="#14141E"/>
<path d="M231.997 413.56L232.472 433.076C232.557 433.104 227.251 435.456 219.182 434.98C213.496 434.646 210.164 432.124 210.164 432.124V411.18" fill="#F2D3B3"/>
<path d="M231.048 267.433C243.445 326.065 233.896 426.264 233.896 426.264H208.266C208.266 426.264 206.453 311.757 202.096 306.94C197.739 302.123 192.522 287.715 201.113 269.356" fill="#92400E"/>
<path d="M214.199 424.746C214.199 424.746 214.616 319.539 207.554 296.23" stroke="#00013D" stroke-width="0.93" stroke-miterlimit="10"/>
<path d="M207.592 426.202H234.508L234.845 423.304L207.317 423.127L207.592 426.202Z" fill="#EFC497"/>
<path d="M152.26 419.272C146.617 423.294 143.778 431.624 145.9 433.342C147.153 434.356 175.915 445.213 176.917 443.652C181.862 435.96 159.503 422.87 159.503 422.87" fill="#14141E"/>
<path d="M180.415 407.758L170.006 430.453C170.006 430.453 165.806 430.562 158.43 426.412C153.584 423.684 152.26 419.272 152.26 419.272L161.396 395.663" fill="#F2D3B3"/>
<path d="M208.74 269.337C208.74 269.337 206.334 325.627 201.593 347.755C193.719 384.497 177.244 423.556 177.244 423.556L152.331 411.552C152.331 411.552 169.413 352.972 169.413 343.924C169.413 332.886 169.285 311.647 169.285 308.877C169.346 293.612 167.923 281.236 172.844 265.529" fill="#92400E"/>
<path d="M151.311 413.56L176.466 425.46L178.839 421.652L152.26 409.752L151.311 413.56Z" fill="#EFC497"/>
<path d="M159.142 412.846C159.142 412.846 173.452 356.461 173.452 347.86C173.452 340.03 173.3 326.793 173.352 319.491C173.381 315.269 173.381 313.841 173.381 310.985C173.381 298.657 172.432 287.186 176.717 273.345M232.453 272.669C232.453 272.669 202.836 278.766 167.462 271.322" stroke="#00013D" stroke-width="0.93" stroke-miterlimit="10"/>
<path d="M200.363 282.322L200.715 276.12" stroke="#00013D" stroke-width="0.93" stroke-miterlimit="10"/>
<path d="M205.575 280.361C204.061 280.361 204.056 278 205.575 278C207.089 278 207.094 280.361 205.575 280.361Z" fill="black"/>
<path d="M207.554 274.811C207.554 274.811 208.142 298.172 207.06 309.696C205.532 323.299 203.757 334.309 203.757 334.309" stroke="#00013D" stroke-width="0.93" stroke-miterlimit="10"/>
<path d="M211.825 274.849C211.825 274.849 211.033 287.553 210.126 288.457C209.22 289.366 207.744 289.937 207.744 289.937" stroke="#00013D" stroke-width="0.93" stroke-miterlimit="10"/>
<path d="M176.85 209.729C176.85 209.729 175.118 244.881 182.408 260.569C194.245 264.011 223.236 263.877 228.865 262.311C234.494 260.745 237.142 209.729 237.142 209.729L220.483 191.913C220.483 191.913 215.765 191.39 213.615 191.39C203.121 190.552 199.129 191.123 199.129 191.123L176.85 209.729Z" fill="white"/>
<path d="M218.19 183.198L219.548 191.823C219.548 191.823 219.548 197.04 212.428 197.04C201.93 197.04 200.605 191.323 200.605 191.323L204.046 175.082M223.112 173.759C223.202 173.312 223.791 173.145 224.232 173.269C224.859 173.445 225.324 174.007 225.533 174.625C225.742 175.244 225.727 175.915 225.656 176.563C225.59 177.167 225.466 177.781 225.115 178.276C224.493 179.157 223.155 179.419 222.248 178.838" fill="#F2D3B3"/>
<path d="M219.182 189.186C219.182 189.186 218.708 189.181 218.057 189.238C213.487 189.662 210.639 188.71 208.74 186.33C205.418 182.046 209.215 176.334 209.215 176.334L218.043 182.617C217.967 183.66 218.708 183.979 218.708 184.902C218.708 187.282 219.182 188.234 219.182 189.186Z" fill="#F2D3B3"/>
<path d="M223.753 165.967C223.753 165.967 225.481 180.742 223.022 183.374C219.344 187.32 212.001 186.625 209.21 184.174C206.87 182.117 206.215 172.76 206.358 170.384C206.842 162.24 220.867 162.126 223.753 165.967Z" fill="#F2D3B3"/>
<path d="M203.306 161.636C204.811 159.708 207.046 158.513 209.282 157.533C211.93 156.371 214.787 155.424 217.663 155.71C219.495 155.895 221.242 156.571 222.899 157.366C223.478 157.642 224.042 157.999 224.47 158.49C224.844 158.923 225.058 159.827 225.723 159.879C227.104 159.984 226.553 161.507 226.373 162.359C226.192 163.211 225.832 164.035 225.158 164.611C224.545 165.134 223.743 165.391 222.951 165.539C221.128 165.877 219.258 165.705 217.412 165.639C214.664 165.534 211.906 165.648 209.177 165.977C209.376 168.914 209.092 171.884 208.337 174.725C207.692 174.326 206.785 173.954 206.258 174.497C206.102 174.659 206.016 174.878 205.931 175.087C205.537 176.077 205.081 177.043 204.564 177.981C204.269 178.519 203.814 179.119 203.206 179.047C201.569 178.847 201.669 176.382 201.502 175.197C201.232 173.283 201.047 171.355 201.042 169.423C201.037 166.667 201.612 163.802 203.306 161.636Z" fill="#01023B"/>
<path d="M209.576 173.588C209.319 172.969 208.294 172.065 207.668 172.046C207.041 172.027 206.419 172.317 205.916 172.745C203.562 174.754 205.162 179.447 208.346 179.4C209.514 179.385 209.414 177.819 209.414 177.819" fill="#F2D3B3"/>
<path d="M215.466 172.626C215.494 173.002 215.29 173.321 215.005 173.345C214.721 173.369 214.469 173.083 214.441 172.707C214.412 172.331 214.616 172.012 214.901 171.988C215.186 171.965 215.437 172.25 215.466 172.626ZM223.402 171.941C223.43 172.317 223.226 172.636 222.941 172.66C222.656 172.683 222.405 172.398 222.376 172.022C222.348 171.646 222.552 171.327 222.837 171.303C223.122 171.279 223.368 171.565 223.402 171.941Z" fill="#01023B"/>
<path d="M222.566 169.599C220.663 169.095 219.519 170.632 219.728 172.088C219.937 173.545 221.147 177.424 221.494 178.219L218.765 177.534" stroke="black" stroke-width="0.604" stroke-miterlimit="10" stroke-linecap="round" stroke-linejoin="round"/>
<path d="M199.134 191.128C199.134 191.128 203.709 207.273 200.558 242.748C198.726 263.339 192.133 286.006 192.133 286.006C192.133 286.006 169.693 283.954 169.693 280.937C169.693 277.919 175.066 260.983 175.066 250.421C175.066 239.859 176.48 201.257 176.48 201.257C176.48 201.257 186.742 192.48 199.134 191.128Z" fill="#FE9526"/>
<path d="M191.621 193.355C191.621 193.355 193.975 215.912 195.498 217.402C195.959 217.85 199.376 218.202 199.376 219.14C199.376 220.082 196.756 220.258 196.756 222.695C196.756 225.132 198.09 236.047 199.889 243.581" stroke="#00013D" stroke-width="0.851" stroke-miterlimit="10"/>
<path d="M220.483 191.913C220.483 191.913 222.348 283.045 223.596 286.006C229.078 287.163 239.207 284.13 239.207 284.13C239.207 284.13 236.591 254.31 237.142 245.552C238.001 231.853 238.727 215.931 238.727 215.931L238.229 198.329C238.224 198.329 231.608 194.15 220.483 191.913Z" fill="#FE9526"/>
<path d="M226.762 192.561C226.762 192.561 228.347 213.142 225.908 217.407C225.59 217.964 222.068 218.378 222.111 219.316C222.153 220.258 224.773 220.315 224.882 222.752C224.992 225.189 223.587 235.947 222.111 244.1" stroke="#00013D" stroke-width="0.851" stroke-miterlimit="10"/>
<path d="M238.39 222.928L238.566 209.363" stroke="#00013D" stroke-width="0.851" stroke-miterlimit="10"/>
<path d="M190.524 317.073C190.524 317.073 188.037 298.467 176.926 299.324C167.657 300.038 165.82 317.235 165.82 317.235" stroke="#34343B" stroke-width="1.648" stroke-miterlimit="10"/>
<path d="M198.123 314.679L200.715 370.779L150.96 368.537L157.671 312.861L198.123 314.679Z" fill="#F59E0B"/>
<path d="M150.96 368.537L157.671 312.861L145.046 363.563L150.96 368.537Z" fill="#14141E"/>
<path d="M183.709 320.02C183.709 320.02 188.839 301.637 177.895 299.462C168.815 297.653 163.319 313.546 163.319 313.546" stroke="#34343B" stroke-width="1.648" stroke-miterlimit="10"/>
<path d="M191.621 317.649L183.595 366.747L140.883 355.642L156.892 308.625L191.621 317.649Z" fill="#E8A762"/>
<path d="M140.883 355.642L156.892 308.625L136.669 350.245L140.883 355.642Z" fill="#14141E"/>
<path d="M155.492 241.544C152.725 259.532 171.554 294.964 171.554 294.964L182.57 291.142C182.57 291.142 172.797 252.516 175.597 246.237" fill="#F2D3B3"/>
<path d="M192.622 217.74C192.622 217.74 178.222 238.241 177.221 246.808C176.01 257.128 179.352 272.945 179.352 272.945C173.006 275.858 164.126 279.333 164.126 279.333C164.126 279.333 152.284 259.898 155.108 240.302C158.236 218.597 173.547 198.877 189.224 193.727" fill="#FE9526"/>
<path d="M179.352 272.94C179.352 272.94 175.616 254.919 177.221 246.804C178.83 238.693 190.064 221.515 190.064 221.515" stroke="#00013D" stroke-width="0.851" stroke-miterlimit="10"/>
<path d="M179.708 284.273C183.742 287.039 186.77 292.613 186.979 297.491C187.083 299.876 186.371 302.694 184.283 304.122C183.305 304.793 181.729 305.436 180.567 305.597C179.931 305.688 176.561 304.584 176.608 304.555C174.506 305.84 172.432 304.541 171.079 302.475C169.726 300.409 169.01 297.934 170.348 295.863C170.552 295.549 171.302 294.94 171.302 294.94C171.302 294.94 170.115 286.982 176.205 284.002" fill="#F2D3B3"/>
<path d="M177.961 267.471L180.581 274.896L165.497 282.16L160.803 273.145L177.961 267.471Z" fill="#FE9526"/>
<path d="M217.189 171.422C217.099 171.422 217.023 171.355 217.013 171.265C217.008 171.213 216.838 170.023 215.585 169.718C214.317 169.409 213.553 170.337 213.525 170.38C213.463 170.456 213.349 170.47 213.273 170.408C213.197 170.346 213.183 170.237 213.245 170.156C213.283 170.108 214.18 169.009 215.67 169.371C217.17 169.737 217.364 171.203 217.369 171.217C217.383 171.317 217.312 171.403 217.217 171.417C217.203 171.422 217.193 171.422 217.189 171.422Z" fill="#14141E"/>
<path d="M216.311 179.161C216.7 180.732 218.299 180.656 219.064 180.499" stroke="black" stroke-width="0.618" stroke-miterlimit="10" stroke-linecap="round" stroke-linejoin="round"/>
<path d="M219.097 171.26C218.646 169.447 216.686 168.304 214.725 168.699C212.775 169.104 211.55 170.898 212.001 172.707C212.39 174.24 213.847 175.297 215.471 175.344C215.77 175.358 216.069 175.335 216.372 175.263C217.981 174.94 219.092 173.673 219.187 172.222C219.206 171.908 219.177 171.584 219.097 171.26ZM216.268 174.83C214.574 175.178 212.874 174.183 212.48 172.612C212.087 171.041 213.145 169.49 214.844 169.142C215.105 169.085 215.366 169.066 215.627 169.075C217.032 169.114 218.299 170.032 218.632 171.36C219.021 172.931 217.962 174.483 216.268 174.83Z" fill="white"/>
<path d="M216.268 174.83C214.574 175.178 212.874 174.183 212.48 172.612C212.087 171.041 213.145 169.49 214.844 169.142C215.105 169.085 215.366 169.066 215.627 169.075C217.032 169.114 218.299 170.032 218.632 171.36C219.021 172.931 217.962 174.483 216.268 174.83Z" fill="#1A1A35"/>
<path d="M226.382 171.089C226.297 170.208 225.931 169.399 225.376 168.804C224.802 168.195 224.085 167.885 223.34 167.947C222.604 168.009 221.959 168.414 221.513 169.114C221.085 169.775 220.896 170.632 220.991 171.517C221.171 173.259 222.4 174.616 223.8 174.659C223.876 174.663 223.957 174.663 224.038 174.654C225.523 174.535 226.577 172.936 226.382 171.089ZM223.985 174.202C222.761 174.297 221.631 173.069 221.465 171.474C221.384 170.684 221.551 169.927 221.926 169.342C222.291 168.78 222.808 168.442 223.387 168.4C223.444 168.39 223.506 168.395 223.568 168.39C224.085 168.409 224.588 168.652 225.006 169.099C225.499 169.618 225.813 170.342 225.898 171.127C226.064 172.726 225.205 174.107 223.985 174.202Z" fill="white"/>
<path d="M223.985 174.202C222.761 174.297 221.631 173.069 221.465 171.474C221.384 170.684 221.551 169.927 221.926 169.342C222.291 168.78 222.808 168.442 223.387 168.4C223.444 168.39 223.506 168.395 223.568 168.39C224.085 168.409 224.588 168.652 225.006 169.099C225.499 169.618 225.813 170.342 225.898 171.127C226.064 172.726 225.205 174.107 223.985 174.202Z" fill="#1A1A35"/>
<path d="M219.021 171.66L218.674 171.341C219.182 170.87 220.392 170.199 221.37 171.003L221.047 171.336C220.169 170.613 219.068 171.617 219.021 171.66ZM202.95 173.788L202.499 173.616C202.585 173.421 203.358 171.717 204.421 171.47C205.418 171.241 211.977 171.294 212.253 171.298V171.746C210.373 171.727 205.314 171.727 204.545 171.903C203.842 172.065 203.154 173.316 202.95 173.788Z" fill="white"/>
<path d="M206.794 176.905C206.761 176.905 206.733 176.882 206.733 176.848C206.728 176.796 206.614 175.525 207.312 175.354C207.44 175.325 207.563 175.344 207.682 175.42C207.943 175.582 208.128 175.977 208.242 176.296C208.199 175.22 208.014 173.474 207.459 173.416C206.671 173.331 206.405 174.364 206.405 174.373C206.396 174.406 206.363 174.43 206.329 174.421C206.296 174.411 206.272 174.378 206.282 174.345C206.287 174.335 206.581 173.197 207.473 173.293C208.356 173.388 208.38 176.429 208.38 176.777C208.38 176.81 208.356 176.839 208.323 176.839C208.29 176.843 208.261 176.82 208.252 176.791C208.252 176.782 208.028 175.796 207.611 175.535C207.521 175.477 207.435 175.463 207.34 175.487C206.747 175.63 206.856 176.829 206.856 176.843C206.861 176.877 206.832 176.91 206.799 176.915C206.799 176.905 206.799 176.905 206.794 176.905Z" fill="black" stroke="black" stroke-width="0.082" stroke-miterlimit="10"/>
</svg>
