<svg width="491" height="491" viewBox="0 0 491 491" fill="none" xmlns="http://www.w3.org/2000/svg">
<path d="M152.079 100.295C152.079 100.295 126.776 67.6598 109.886 72.9299C92.9955 78.2 104.583 103.012 149.362 101.277M156.138 100.295C156.138 100.295 181.441 67.6598 198.331 72.9299C215.222 78.2 203.634 103.012 158.855 101.277" stroke="#FF8300" stroke-width="3.501" stroke-miterlimit="10"/>
<path d="M132.439 66.5469L152.963 100" stroke="#FF8300" stroke-width="3.501" stroke-miterlimit="10"/>
<path d="M175.778 66.5469L155.287 100" stroke="#FF8300" stroke-width="3.501" stroke-miterlimit="10"/>
<path d="M232.505 98.6909H75.7449V208.118H232.505V98.6909Z" fill="#FE9526"/>
<path d="M236.564 98.6909H71.686V130.54H236.564V98.6909Z" fill="#FE9526"/>
<path d="M165.565 98.6909H142.685V208.118H165.565V98.6909Z" fill="white"/>
<path opacity="0.26" d="M232.505 150.606L75.7449 136.825V130.541H232.505V150.606Z" fill="black"/>
<path d="M412.931 227.464C412.931 227.464 389.69 197.447 374.109 202.325C358.561 207.202 369.232 229.984 410.411 228.413M416.663 227.464C416.663 227.464 439.903 197.447 455.484 202.325C471.033 207.202 460.362 229.984 419.183 228.413" stroke="#FFA74B" stroke-width="2.626" stroke-miterlimit="10"/>
<path d="M394.862 196.465L413.717 227.202" stroke="#FFA74B" stroke-width="2.626" stroke-miterlimit="10"/>
<path d="M434.731 196.465L415.844 227.202" stroke="#FFA74B" stroke-width="2.626" stroke-miterlimit="10"/>
<path d="M477.612 224.682H351.949V414.6H477.612V224.682Z" fill="#FFA74B"/>
<path d="M484.944 224.682H344.649V258.462H484.944V224.682Z" fill="#FFA74B"/>
<path d="M425.141 224.682H404.42V414.6H425.141V224.682Z" fill="white"/>
<path opacity="0.2" d="M351.949 258.462H477.645V287.857L351.949 267.039V258.462Z" fill="black"/>
<path d="M233.683 415.648H178.331L222.259 314.567H277.579L233.683 415.648Z" fill="#F59E0B"/>
<path d="M357.415 352.931H127.235C115.418 352.931 105.827 343.34 105.827 331.523V190.639C105.827 178.822 115.418 169.231 127.235 169.231H357.415C369.232 169.231 378.823 178.822 378.823 190.639V331.523C378.823 343.34 369.232 352.931 357.415 352.931Z" fill="#F59E0B"/>
<path d="M365.01 352.931H134.829C123.012 352.931 113.421 343.34 113.421 331.523V190.639C113.421 178.822 123.012 169.231 134.829 169.231H365.01C376.826 169.231 386.417 178.822 386.417 190.639V331.523C386.417 343.34 376.826 352.931 365.01 352.931Z" fill="#FDE68A"/>
<path d="M381.507 187.202V334.142C381.507 341.834 375.288 348.054 367.595 348.054H131.228C123.536 348.054 117.316 341.834 117.316 334.142V187.202C117.316 179.51 123.536 173.29 131.228 173.29H367.595C375.288 173.258 381.507 179.51 381.507 187.202Z" fill="white"/>
<path d="M267.268 405.337H185.729V415.648H277.579C277.579 409.952 272.963 405.337 267.268 405.337Z" fill="#F59E0B"/>
<path d="M235.123 241.081C245.735 241.081 254.338 232.478 254.338 221.866C254.338 211.254 245.735 202.652 235.123 202.652C224.512 202.652 215.909 211.254 215.909 221.866C215.909 232.478 224.512 241.081 235.123 241.081Z" fill="#FE9526"/>
<path d="M270.492 231.11L242.569 240.082L251.541 268.005L279.464 259.034L270.492 231.11Z" fill="#FFA74B"/>
<path d="M227.955 282.947C229.428 282.947 230.639 284.125 230.639 285.631C230.639 287.104 229.461 288.315 227.955 288.315C226.482 288.315 225.271 287.137 225.271 285.631C225.271 284.125 226.449 282.947 227.955 282.947ZM227.955 280.754C225.271 280.754 223.11 282.947 223.11 285.598C223.11 288.25 225.304 290.443 227.955 290.443C230.606 290.443 232.799 288.25 232.799 285.598C232.799 282.947 230.639 280.754 227.955 280.754Z" fill="#53D86A"/>
<path d="M233.225 278.593L229.068 286.187C228.478 287.268 226.809 286.842 226.809 285.598V278.561H233.225V278.593Z" fill="#92400E"/>
<path d="M271.949 282.947C273.422 282.947 274.633 284.125 274.633 285.631C274.633 287.104 273.454 288.315 271.949 288.315C270.476 288.315 269.264 287.137 269.264 285.631C269.264 284.125 270.476 282.947 271.949 282.947ZM271.949 280.754C269.264 280.754 267.104 282.947 267.104 285.598C267.104 288.25 269.297 290.443 271.949 290.443C274.633 290.443 276.793 288.25 276.793 285.598C276.793 282.947 274.633 280.754 271.949 280.754Z" fill="#53D86A"/>
<path d="M277.219 278.593L273.062 286.187C272.472 287.268 270.803 286.842 270.803 285.598V278.561H277.219V278.593ZM279.052 271.261H225.271C224.747 271.261 224.322 270.901 224.191 270.41L213.225 221.146C213.16 220.819 213.225 220.492 213.454 220.23C213.651 219.968 213.978 219.804 214.305 219.804H290.05C290.377 219.804 290.705 219.968 290.901 220.23C291.098 220.492 291.196 220.819 291.13 221.146L280.165 270.41C280.001 270.901 279.575 271.261 279.052 271.261ZM226.155 269.068H278.201L288.708 221.997H215.647L226.155 269.068Z" fill="#92400E"/>
<path d="M214.371 222.292C213.88 222.292 213.421 221.932 213.29 221.441L210.934 210.77C210.017 206.678 206.482 203.83 202.292 203.83H189.264C188.642 203.83 188.151 203.339 188.151 202.717C188.151 202.095 188.642 201.604 189.264 201.604H202.292C207.497 201.604 211.948 205.172 213.061 210.246L215.418 220.917C215.549 221.506 215.189 222.096 214.567 222.226C214.534 222.292 214.436 222.292 214.371 222.292Z" fill="#92400E"/>
<path d="M281.638 279.706H224.551C221.605 279.706 219.248 277.317 219.248 274.403C219.248 271.457 221.637 269.101 224.551 269.101H279.052C279.674 269.101 280.165 269.592 280.165 270.214C280.165 270.835 279.674 271.326 279.052 271.326H224.551C222.816 271.326 221.441 272.734 221.441 274.436C221.441 276.138 222.848 277.546 224.551 277.546H281.605C282.227 277.546 282.718 278.037 282.718 278.659C282.718 279.215 282.227 279.706 281.638 279.706Z" fill="#92400E"/>
<path d="M225.042 270.443C224.878 270.443 224.78 270.312 224.78 270.181V220.884C224.78 220.721 224.911 220.623 225.042 220.623C225.205 220.623 225.304 220.753 225.304 220.884V270.148C225.304 270.312 225.205 270.443 225.042 270.443ZM238.626 270.443C238.462 270.443 238.364 270.312 238.364 270.181V220.884C238.364 220.721 238.495 220.623 238.626 220.623C238.79 220.623 238.888 220.753 238.888 220.884V270.148C238.888 270.312 238.757 270.443 238.626 270.443ZM252.178 270.443C252.014 270.443 251.916 270.312 251.916 270.181V220.884C251.916 220.721 252.047 220.623 252.178 220.623C252.341 220.623 252.439 220.753 252.439 220.884V270.148C252.439 270.312 252.341 270.443 252.178 270.443ZM265.762 270.443C265.598 270.443 265.5 270.312 265.5 270.181V220.884C265.5 220.721 265.631 220.623 265.762 220.623C265.893 220.623 266.024 220.753 266.024 220.884V270.148C266.024 270.312 265.893 270.443 265.762 270.443ZM279.346 270.443C279.183 270.443 279.084 270.312 279.084 270.181V220.884C279.084 220.721 279.215 220.623 279.346 220.623C279.477 220.623 279.608 220.753 279.608 220.884V270.148C279.608 270.312 279.477 270.443 279.346 270.443Z" fill="#92400E"/>
<path d="M288.184 229.33H216.171C216.007 229.33 215.909 229.199 215.909 229.068C215.909 228.904 216.04 228.806 216.171 228.806H288.184C288.348 228.806 288.446 228.937 288.446 229.068C288.446 229.199 288.348 229.33 288.184 229.33ZM285.664 242.914H218.724C218.56 242.914 218.462 242.783 218.462 242.652C218.462 242.488 218.593 242.39 218.724 242.39H285.664C285.827 242.39 285.926 242.521 285.926 242.652C285.926 242.783 285.827 242.914 285.664 242.914ZM282.849 256.466H221.539C221.375 256.466 221.277 256.335 221.277 256.204C221.277 256.04 221.408 255.942 221.539 255.942H282.849C283.012 255.942 283.11 256.073 283.11 256.204C283.11 256.367 282.98 256.466 282.849 256.466Z" fill="#92400E"/>
<path d="M278.299 328.708H223.699C216.793 328.708 211.163 323.078 211.163 316.171C211.163 309.264 216.793 303.634 223.699 303.634H278.299C285.205 303.634 290.836 309.264 290.836 316.171C290.836 323.111 285.205 328.708 278.299 328.708Z" fill="#F59E0B"/>
<path d="M142.717 417.448L98.2654 416.564L16.1702 414.993L16.6939 410.869L34.9918 269.788L65.663 270.443L80.9494 270.803L117.087 271.556L118.134 271.588L129.035 336.302L132.799 358.692L133.912 365.304L134.959 371.523L137.513 386.679L138.855 394.633L141.997 413.226L142.717 417.448Z" fill="#FFA74B"/>
<path d="M80.9494 270.803L77.7416 293.88H62.3896L65.663 270.443L80.9494 270.803Z" fill="#FFECD7"/>
<path d="M117.12 271.359L98.2654 416.564L142.717 417.448L118.135 271.589L117.12 271.359Z" fill="#FF921F"/>
<path d="M307.432 398.856C313.072 398.856 317.644 394.283 317.644 388.643C317.644 383.003 313.072 378.43 307.432 378.43C301.791 378.43 297.219 383.003 297.219 388.643C297.219 394.283 301.791 398.856 307.432 398.856Z" stroke="#FFA647" stroke-width="3.501" stroke-miterlimit="10"/>
<path d="M320.377 103.11C325.123 103.11 328.97 99.2631 328.97 94.5176C328.97 89.7721 325.123 85.925 320.377 85.925C315.632 85.925 311.785 89.7721 311.785 94.5176C311.785 99.2631 315.632 103.11 320.377 103.11Z" fill="#FFA647"/>
<path d="M452.08 157.513C454.358 157.513 456.204 155.666 456.204 153.388C456.204 151.11 454.358 149.264 452.08 149.264C449.802 149.264 447.956 151.11 447.956 153.388C447.956 155.666 449.802 157.513 452.08 157.513Z" fill="#FFA74B"/>
<path d="M15.2211 235.647C22.5066 235.647 28.4126 229.741 28.4126 222.456C28.4126 215.17 22.5066 209.264 15.2211 209.264C7.93559 209.264 2.02954 215.17 2.02954 222.456C2.02954 229.741 7.93559 235.647 15.2211 235.647Z" fill="#FE9526"/>
<path d="M234.293 320.198V309.812H237.924C238.647 309.812 239.244 309.937 239.714 310.187C240.184 310.434 240.534 310.767 240.764 311.186C240.994 311.602 241.108 312.064 241.108 312.571C241.108 313.017 241.029 313.385 240.87 313.676C240.715 313.967 240.508 314.197 240.251 314.366C239.998 314.535 239.722 314.66 239.425 314.741V314.843C239.743 314.863 240.062 314.974 240.383 315.177C240.704 315.38 240.973 315.671 241.19 316.049C241.406 316.428 241.514 316.891 241.514 317.439C241.514 317.959 241.396 318.428 241.159 318.844C240.923 319.259 240.549 319.589 240.038 319.832C239.528 320.076 238.864 320.198 238.046 320.198H234.293ZM235.551 319.082H238.046C238.867 319.082 239.45 318.923 239.795 318.605C240.143 318.284 240.317 317.895 240.317 317.439C240.317 317.087 240.228 316.763 240.049 316.465C239.869 316.164 239.614 315.924 239.283 315.745C238.952 315.563 238.559 315.471 238.106 315.471H235.551V319.082ZM235.551 314.376H237.883C238.262 314.376 238.603 314.302 238.908 314.153C239.215 314.004 239.459 313.794 239.638 313.524C239.82 313.254 239.912 312.936 239.912 312.571C239.912 312.114 239.753 311.727 239.435 311.409C239.117 311.088 238.614 310.928 237.924 310.928H235.551V314.376ZM250.396 309.812H251.654V316.688C251.654 317.398 251.486 318.032 251.152 318.59C250.82 319.144 250.352 319.582 249.747 319.903C249.142 320.221 248.432 320.38 247.617 320.38C246.802 320.38 246.092 320.221 245.487 319.903C244.882 319.582 244.412 319.144 244.078 318.59C243.746 318.032 243.581 317.398 243.581 316.688V309.812H244.838V316.587C244.838 317.094 244.95 317.545 245.173 317.941C245.396 318.333 245.714 318.642 246.126 318.869C246.542 319.092 247.039 319.204 247.617 319.204C248.195 319.204 248.692 319.092 249.108 318.869C249.524 318.642 249.842 318.333 250.061 317.941C250.284 317.545 250.396 317.094 250.396 316.587V309.812ZM253.273 309.812H254.713L257.593 314.66H257.715L260.595 309.812H262.035L258.283 315.918V320.198H257.025V315.918L253.273 309.812Z" fill="white"/>
</svg>
