<svg width="19" height="19" viewBox="0 0 19 19" fill="none" xmlns="http://www.w3.org/2000/svg">
<g clip-path="url(#clip0_43_255)">
<path fill-rule="evenodd" clip-rule="evenodd" d="M18.6579 16.4615C18.0714 18.2437 15.7737 19.1329 14.1321 18.9847C11.8901 18.7821 9.45049 17.5927 7.59862 16.2829C4.87655 14.3576 2.32675 11.3797 0.840954 8.21935C-0.209113 5.98621 -0.444713 3.24008 1.11709 1.20455C1.69469 0.452147 2.32042 0.0506132 3.25775 0.00374654C4.55989 -0.0595868 4.74229 0.685213 5.18942 1.84548C5.52255 2.71315 5.96715 3.59855 6.21542 4.49788C6.68029 6.17621 5.05515 6.24588 4.84995 7.61768C4.72329 8.48281 5.77082 9.64308 6.24455 10.2599C7.15767 11.4613 8.27605 12.4918 9.54802 13.3037C10.27 13.7585 11.4328 14.578 12.2587 14.1258C13.5304 13.4291 13.4114 11.2847 15.1885 12.0105C16.1094 12.3854 17.0011 12.9263 17.8802 13.4C19.2393 14.1309 19.176 14.8883 18.6579 16.4615C19.0455 15.2861 18.2703 17.637 18.6579 16.4615Z" fill="#585858" fill-opacity="0.7"/>
</g>
<defs>
<clipPath id="clip0_43_255">
<rect width="19" height="19" fill="white"/>
</clipPath>
</defs>
</svg>
