<svg width="26" height="26" viewBox="0 0 26 26" fill="none" xmlns="http://www.w3.org/2000/svg">
<path d="M9.20832 20.5833C8.88693 20.5833 8.57275 20.6786 8.30552 20.8572C8.03829 21.0358 7.83001 21.2895 7.70702 21.5865C7.58403 21.8834 7.55185 22.2101 7.61455 22.5254C7.67725 22.8406 7.83201 23.1301 8.05927 23.3574C8.28653 23.5846 8.57608 23.7394 8.8913 23.8021C9.20652 23.8648 9.53325 23.8326 9.83018 23.7096C10.1271 23.5866 10.3809 23.3784 10.5595 23.1111C10.738 22.8439 10.8333 22.5297 10.8333 22.2083C10.8333 21.7774 10.6621 21.364 10.3574 21.0593C10.0526 20.7545 9.6393 20.5833 9.20832 20.5833ZM20.5833 17.3333H7.58332C7.29601 17.3333 7.02046 17.2192 6.81729 17.016C6.61413 16.8129 6.49999 16.5373 6.49999 16.25C6.49999 15.9627 6.61413 15.6871 6.81729 15.484C7.02046 15.2808 7.29601 15.1667 7.58332 15.1667H16.7821C17.4878 15.1644 18.1738 14.9335 18.7372 14.5085C19.3007 14.0836 19.7112 13.4875 19.9073 12.8096L21.6249 6.79781C21.6709 6.63658 21.679 6.46685 21.6483 6.30199C21.6177 6.13713 21.5491 5.98164 21.4482 5.84776C21.3472 5.71388 21.2166 5.60526 21.0665 5.53045C20.9164 5.45564 20.751 5.41669 20.5833 5.41667H7.30065C7.07639 4.78547 6.66297 4.23877 6.11673 3.85105C5.5705 3.46333 4.91801 3.25345 4.24816 3.25H3.24999C2.96267 3.25 2.68712 3.36414 2.48396 3.5673C2.28079 3.77047 2.16666 4.04602 2.16666 4.33333C2.16666 4.62065 2.28079 4.8962 2.48396 5.09937C2.68712 5.30253 2.96267 5.41667 3.24999 5.41667H4.24816C4.48334 5.41749 4.71191 5.49447 4.89967 5.63607C5.08744 5.77768 5.22427 5.9763 5.2897 6.20219L5.45818 6.79233L5.45844 6.79781L7.23579 13.0185C6.40873 13.1075 5.64727 13.5102 5.10819 14.1437C4.56912 14.7772 4.29347 15.5933 4.33801 16.424C4.38255 17.2546 4.74388 18.0365 5.34761 18.6088C5.95133 19.181 6.75149 19.5 7.58332 19.5H20.5833C20.8706 19.5 21.1462 19.3859 21.3494 19.1827C21.5525 18.9795 21.6667 18.704 21.6667 18.4167C21.6667 18.1293 21.5525 17.8538 21.3494 17.6506C21.1462 17.4475 20.8706 17.3333 20.5833 17.3333ZM19.1472 7.58333L17.8242 12.2139C17.7588 12.44 17.622 12.6388 17.4341 12.7805C17.2462 12.9223 17.0175 12.9993 16.7821 13H9.48391L9.20773 12.0334L7.93694 7.58333H19.1472ZM17.875 20.5833C17.5536 20.5833 17.2394 20.6786 16.9722 20.8572C16.705 21.0358 16.4967 21.2895 16.3737 21.5865C16.2507 21.8834 16.2185 22.2101 16.2812 22.5254C16.3439 22.8406 16.4987 23.1301 16.7259 23.3574C16.9532 23.5846 17.2428 23.7394 17.558 23.8021C17.8732 23.8648 18.1999 23.8326 18.4968 23.7096C18.7938 23.5866 19.0476 23.3784 19.2261 23.1111C19.4047 22.8439 19.5 22.5297 19.5 22.2083C19.5 21.7774 19.3288 21.364 19.024 21.0593C18.7193 20.7545 18.306 20.5833 17.875 20.5833Z" fill="#585858"/>
</svg>
