<svg width="28" height="28" viewBox="0 0 28 28" fill="none" xmlns="http://www.w3.org/2000/svg">
<path d="M15.645 14L22.995 6.66167C23.2147 6.44198 23.3381 6.14402 23.3381 5.83334C23.3381 5.52265 23.2147 5.22469 22.995 5.005C22.7753 4.78532 22.4774 4.6619 22.1667 4.6619C21.856 4.6619 21.558 4.78532 21.3383 5.005L14 12.355L6.66168 5.005C6.44199 4.78532 6.14403 4.6619 5.83334 4.6619C5.52266 4.6619 5.2247 4.78532 5.00501 5.005C4.78532 5.22469 4.6619 5.52265 4.6619 5.83334C4.6619 6.14402 4.78532 6.44198 5.00501 6.66167L12.355 14L5.00501 21.3383C4.89566 21.4468 4.80887 21.5758 4.74964 21.718C4.69041 21.8602 4.65991 22.0127 4.65991 22.1667C4.65991 22.3207 4.69041 22.4732 4.74964 22.6153C4.80887 22.7575 4.89566 22.8865 5.00501 22.995C5.11347 23.1044 5.2425 23.1911 5.38467 23.2504C5.52684 23.3096 5.67933 23.3401 5.83334 23.3401C5.98736 23.3401 6.13985 23.3096 6.28202 23.2504C6.42419 23.1911 6.55322 23.1044 6.66168 22.995L14 15.645L21.3383 22.995C21.4468 23.1044 21.5758 23.1911 21.718 23.2504C21.8602 23.3096 22.0127 23.3401 22.1667 23.3401C22.3207 23.3401 22.4732 23.3096 22.6153 23.2504C22.7575 23.1911 22.8866 23.1044 22.995 22.995C23.1044 22.8865 23.1912 22.7575 23.2504 22.6153C23.3096 22.4732 23.3401 22.3207 23.3401 22.1667C23.3401 22.0127 23.3096 21.8602 23.2504 21.718C23.1912 21.5758 23.1044 21.4468 22.995 21.3383L15.645 14Z" fill="#585858"/>
</svg>
