<svg width="45" height="75" viewBox="0 0 45 75" fill="none" xmlns="http://www.w3.org/2000/svg">
<path d="M9.94687 45.5737C9.5798 45.9415 9.37362 46.4398 9.37362 46.9594C9.37362 47.4789 9.5798 47.9773 9.94687 48.345L21.0169 59.4263C21.4444 59.8538 22.0219 60.045 22.5806 59.9925C23.0869 59.9925 23.5912 59.8031 23.9756 59.4187L35.0512 48.3431C35.2331 48.1613 35.3773 47.9454 35.4757 47.7078C35.5742 47.4702 35.6248 47.2156 35.6248 46.9584C35.6248 46.7013 35.5742 46.4466 35.4757 46.209C35.3773 45.9715 35.2331 45.7556 35.0512 45.5737C34.8694 45.3919 34.6535 45.2477 34.4159 45.1493C34.1784 45.0508 33.9237 45.0002 33.6666 45.0002C33.4094 45.0002 33.1548 45.0508 32.9172 45.1493C32.6796 45.2477 32.4637 45.3919 32.2819 45.5737L22.4944 55.3612L12.7144 45.5737C12.5327 45.3919 12.317 45.2476 12.0796 45.1492C11.8422 45.0507 11.5877 45 11.3306 45C11.0736 45 10.8191 45.0507 10.5816 45.1492C10.3442 45.2476 10.1285 45.3919 9.94687 45.5737Z" fill="#FBBF24"/>
<path d="M9.94687 30.5737C9.5798 30.9415 9.37362 31.4398 9.37362 31.9594C9.37362 32.4789 9.5798 32.9773 9.94687 33.345L21.0169 44.4263C21.4444 44.8538 22.0219 45.045 22.5806 44.9925C23.0869 44.9925 23.5912 44.8031 23.9756 44.4187L35.0512 33.3431C35.2331 33.1613 35.3773 32.9454 35.4757 32.7078C35.5742 32.4702 35.6248 32.2156 35.6248 31.9584C35.6248 31.7013 35.5742 31.4466 35.4757 31.209C35.3773 30.9715 35.2331 30.7556 35.0512 30.5737C34.8694 30.3919 34.6535 30.2477 34.4159 30.1493C34.1784 30.0508 33.9237 30.0002 33.6666 30.0002C33.4094 30.0002 33.1548 30.0508 32.9172 30.1493C32.6796 30.2477 32.4637 30.3919 32.2819 30.5737L22.4944 40.3612L12.7144 30.5737C12.5327 30.3919 12.317 30.2476 12.0796 30.1492C11.8422 30.0507 11.5877 30 11.3306 30C11.0736 30 10.8191 30.0507 10.5816 30.1492C10.3442 30.2476 10.1285 30.3919 9.94687 30.5737Z" fill="#FDE68A"/>
<path d="M9.94687 15.5737C9.5798 15.9415 9.37362 16.4398 9.37362 16.9594C9.37362 17.4789 9.5798 17.9773 9.94687 18.345L21.0169 29.4263C21.4444 29.8538 22.0219 30.045 22.5806 29.9925C23.0869 29.9925 23.5912 29.8031 23.9756 29.4187L35.0512 18.3431C35.2331 18.1613 35.3773 17.9454 35.4757 17.7078C35.5742 17.4702 35.6248 17.2156 35.6248 16.9584C35.6248 16.7013 35.5742 16.4466 35.4757 16.209C35.3773 15.9715 35.2331 15.7556 35.0512 15.5737C34.8694 15.3919 34.6535 15.2477 34.4159 15.1493C34.1784 15.0508 33.9237 15.0002 33.6666 15.0002C33.4094 15.0002 33.1548 15.0508 32.9172 15.1493C32.6796 15.2477 32.4637 15.3919 32.2819 15.5737L22.4944 25.3612L12.7144 15.5737C12.5327 15.3919 12.317 15.2476 12.0796 15.1492C11.8422 15.0507 11.5877 15 11.3306 15C11.0736 15 10.8191 15.0507 10.5816 15.1492C10.3442 15.2476 10.1285 15.3919 9.94687 15.5737Z" fill="#FEF3C7"/>
</svg>
