<svg width="31" height="24" viewBox="0 0 31 24" fill="none" xmlns="http://www.w3.org/2000/svg">
<g clip-path="url(#clip0_12_75)">
<path d="M27.5 0H3.5C1.85 0 0.515 1.35 0.515 3L0.5 21C0.5 22.65 1.85 24 3.5 24H27.5C29.15 24 30.5 22.65 30.5 21V3C30.5 1.35 29.15 0 27.5 0ZM26.9 6.375L16.295 13.005C15.815 13.305 15.185 13.305 14.705 13.005L4.1 6.375C3.725 6.135 3.5 5.73 3.5 5.295C3.5 4.29 4.595 3.69 5.45 4.215L15.5 10.5L25.55 4.215C26.405 3.69 27.5 4.29 27.5 5.295C27.5 5.73 27.275 6.135 26.9 6.375Z" fill="#F59E0B"/>
</g>
<defs>
<clipPath id="clip0_12_75">
<rect width="30" height="24" fill="white" transform="translate(0.5)"/>
</clipPath>
</defs>
</svg>
