<svg width="19" height="15" viewBox="0 0 19 15" fill="none" xmlns="http://www.w3.org/2000/svg">
<g clip-path="url(#clip0_43_253)">
<path d="M17.1 0H1.9C0.855 0 0.00949999 0.84375 0.00949999 1.875L0 13.125C0 14.1562 0.855 15 1.9 15H17.1C18.145 15 19 14.1562 19 13.125V1.875C19 0.84375 18.145 0 17.1 0ZM16.72 3.98438L10.0035 8.12813C9.6995 8.31563 9.3005 8.31563 8.9965 8.12813L2.28 3.98438C2.0425 3.83437 1.9 3.58125 1.9 3.30938C1.9 2.68125 2.5935 2.30625 3.135 2.63437L9.5 6.5625L15.865 2.63437C16.4065 2.30625 17.1 2.68125 17.1 3.30938C17.1 3.58125 16.9575 3.83437 16.72 3.98438Z" fill="#585858" fill-opacity="0.7"/>
</g>
<defs>
<clipPath id="clip0_43_253">
<rect width="19" height="15" fill="white"/>
</clipPath>
</defs>
</svg>
