<svg width="25" height="25" viewBox="0 0 25 25" fill="none" xmlns="http://www.w3.org/2000/svg">
<g clip-path="url(#clip0_12_226)">
<path d="M12.2549 0C5.49731 0 0 5.60738 0 12.4998C0 19.3924 5.49731 25 12.2549 25C19.0121 25 24.5098 19.3924 24.5098 12.4998C24.5098 5.60738 19.0121 0 12.2549 0ZM15.7185 7.89086C15.7185 7.95005 15.6954 8.00681 15.6544 8.04867C15.6134 8.09052 15.5577 8.11403 15.4997 8.11403L14.1066 8.11492C13.1874 8.11492 13.0194 8.48003 13.0194 9.19909V10.6908H15.4087C15.4715 10.6908 15.5314 10.7184 15.5728 10.7666C15.6141 10.8148 15.6334 10.8789 15.6257 10.9425L15.2855 13.6279C15.2787 13.6817 15.2529 13.7311 15.2129 13.767C15.173 13.8028 15.1216 13.8225 15.0684 13.8225H13.0194V20.4906C13.0194 20.5498 12.9963 20.6066 12.9553 20.6484C12.9143 20.6903 12.8586 20.7138 12.8006 20.7138H10.0822C10.0242 20.7138 9.96855 20.6903 9.92752 20.6484C9.88649 20.6066 9.86343 20.5498 9.86343 20.4906V13.8225H7.80782C7.74979 13.8225 7.69414 13.799 7.65311 13.7571C7.61208 13.7153 7.58902 13.6585 7.58902 13.5993V10.9139C7.58902 10.8547 7.61208 10.798 7.65311 10.7561C7.69414 10.7143 7.74979 10.6908 7.80782 10.6908H9.86343V8.93329C9.86343 6.60562 11.2445 5.15992 13.4681 5.15992C14.4241 5.15992 15.2689 5.23245 15.5283 5.26749C15.5809 5.27458 15.6292 5.30092 15.6642 5.3416C15.6992 5.38228 15.7185 5.43454 15.7185 5.48865V7.89086Z" fill="#F59E0B"/>
</g>
<defs>
<clipPath id="clip0_12_226">
<rect width="24.5098" height="25" fill="white"/>
</clipPath>
</defs>
</svg>
