<svg width="26" height="20" viewBox="0 0 26 20" fill="none" xmlns="http://www.w3.org/2000/svg">
<g clip-path="url(#clip0_20_37)">
<path d="M11.5556 20H14.4444C15.2389 20 15.8889 19.25 15.8889 18.3333C15.8889 17.4167 15.2389 16.6667 14.4444 16.6667H11.5556C10.7611 16.6667 10.1111 17.4167 10.1111 18.3333C10.1111 19.25 10.7611 20 11.5556 20ZM0 1.66667C0 2.58333 0.65 3.33333 1.44444 3.33333H24.5556C25.35 3.33333 26 2.58333 26 1.66667C26 0.75 25.35 0 24.5556 0H1.44444C0.65 0 0 0.75 0 1.66667ZM5.77778 11.6667H20.2222C21.0167 11.6667 21.6667 10.9167 21.6667 10C21.6667 9.08333 21.0167 8.33333 20.2222 8.33333H5.77778C4.98333 8.33333 4.33333 9.08333 4.33333 10C4.33333 10.9167 4.98333 11.6667 5.77778 11.6667Z" fill="#585858"/>
</g>
<defs>
<clipPath id="clip0_20_37">
<rect width="26" height="20" fill="white"/>
</clipPath>
</defs>
</svg>
