<svg width="26" height="26" viewBox="0 0 26 26" fill="none" xmlns="http://www.w3.org/2000/svg">
<path d="M23.3675 7.65917C23.1126 6.64795 22.5943 5.72229 21.8655 4.97636C21.1367 4.23043 20.2234 3.69085 19.2183 3.4125C18.005 3.10917 15.6542 3.00083 13 5.41667C10.3567 3.01167 8.01667 3.10917 6.80334 3.4125C5.79763 3.68826 4.8829 4.22548 4.15219 4.9695C3.42149 5.71352 2.90089 6.63781 2.64334 7.64833C2.31409 8.95954 2.34136 10.3349 2.7223 11.6321C3.10325 12.9292 3.82403 14.1009 4.81 15.0258L12.2092 22.425C12.312 22.53 12.4352 22.6129 12.5712 22.6688C12.7071 22.7247 12.853 22.7523 13 22.75C13.2858 22.7459 13.5583 22.6291 13.7583 22.425L21.1575 15.0367C22.1511 14.1163 22.8801 12.9467 23.2687 11.6493C23.6574 10.352 23.6915 8.97418 23.3675 7.65917ZM19.6192 13.4983L13 20.1283L6.34834 13.4983C5.63123 12.8464 5.10218 12.014 4.81636 11.0879C4.53053 10.1618 4.49841 9.17604 4.72334 8.23333C4.88167 7.59258 5.20498 7.00444 5.66111 6.5274C6.11725 6.05036 6.69032 5.70103 7.32334 5.51417C7.58195 5.44935 7.84756 5.41661 8.11417 5.41667C8.90524 5.48629 9.67431 5.71393 10.3758 6.08609C11.0774 6.45825 11.6971 6.96738 12.1983 7.58333C12.2981 7.69093 12.4187 7.77713 12.5528 7.83673C12.6868 7.89632 12.8316 7.92805 12.9783 7.93C13.1269 7.92952 13.2737 7.8985 13.4098 7.83886C13.5458 7.77923 13.6682 7.69225 13.7692 7.58333C15.4158 5.85 17.1708 5.1025 18.6983 5.48167C19.3329 5.67161 19.9058 6.02631 20.3587 6.50967C20.8116 6.99302 21.1284 7.58776 21.2767 8.23333C21.4977 9.17892 21.4605 10.1665 21.1689 11.0928C20.8773 12.0191 20.342 12.8499 19.6192 13.4983Z" fill="#585858"/>
</svg>
