<svg width="14" height="15" viewBox="0 0 14 15" fill="none" xmlns="http://www.w3.org/2000/svg">
<path d="M2.28517 13.7785L10.8887 5.17494L10.8798 9.2928C10.8798 9.63067 11.014 9.9547 11.2529 10.1936C11.4918 10.4325 11.8158 10.5667 12.1537 10.5667C12.4916 10.5667 12.8156 10.4325 13.0545 10.1936C13.2934 9.9547 13.4276 9.63067 13.4276 9.2928L13.4276 2.1157C13.424 1.9487 13.3874 1.78407 13.32 1.63124C13.1913 1.32309 12.9463 1.07811 12.6381 0.949418C12.4853 0.881992 12.3207 0.845407 12.1537 0.841762L4.97659 0.841763C4.8091 0.841076 4.64313 0.873557 4.48826 0.937335C4.33339 1.00111 4.19268 1.09493 4.07425 1.21336C3.95581 1.33179 3.862 1.4725 3.79822 1.62737C3.73445 1.78224 3.70196 1.94821 3.70265 2.1157C3.70196 2.28319 3.73445 2.44915 3.79822 2.60402C3.862 2.75889 3.95581 2.89961 4.07425 3.01804C4.19268 3.13647 4.33339 3.23028 4.48826 3.29406C4.64313 3.35784 4.8091 3.39032 4.97659 3.38963L9.09445 3.38066L0.490895 11.9842C0.252959 12.2222 0.119287 12.5449 0.119288 12.8814C0.119288 13.2178 0.252959 13.5406 0.490895 13.7785C0.728831 14.0164 1.05154 14.1501 1.38803 14.1501C1.72452 14.1501 2.04724 14.0164 2.28517 13.7785Z" fill="#F59E0B"/>
</svg>
