<svg width="26" height="25" viewBox="0 0 26 25" fill="none" xmlns="http://www.w3.org/2000/svg">
<g clip-path="url(#clip0_12_228)">
<path d="M14.6937 11.0576H14.7129V11.0275L14.6937 11.0576ZM14.6937 11.0576H14.7129V11.0275L14.6937 11.0576ZM14.6937 11.0576H14.7129V11.0275L14.6937 11.0576ZM14.6937 11.0576H14.7129V11.0275L14.6937 11.0576ZM14.6937 11.0576H14.7129V11.0275L14.6937 11.0576ZM14.6937 11.0576H14.7129V11.0275L14.6937 11.0576ZM14.6937 11.0576H14.7129V11.0275L14.6937 11.0576ZM14.6937 11.0576H14.7129V11.0275L14.6937 11.0576ZM14.6937 11.0576H14.7129V11.0275L14.6937 11.0576ZM14.6937 11.0576H14.7129V11.0275L14.6937 11.0576ZM14.6937 11.0576H14.7129V11.0275L14.6937 11.0576ZM14.6937 11.0576H14.7129V11.0275L14.6937 11.0576ZM14.6937 11.0576H14.7129V11.0275L14.6937 11.0576ZM14.6937 11.0576H14.7129V11.0275L14.6937 11.0576ZM14.6937 11.0576H14.7129V11.0275L14.6937 11.0576ZM14.6937 11.0576H14.7129V11.0275L14.6937 11.0576ZM13.4484 0C10.9761 0 8.55938 0.733112 6.50377 2.10663C4.44816 3.48015 2.846 5.43238 1.89991 7.71645C0.953811 10.0005 0.706269 12.5139 1.18858 14.9386C1.6709 17.3634 2.86141 19.5907 4.60957 21.3388C6.35772 23.087 8.58501 24.2775 11.0098 24.7598C13.4345 25.2421 15.9479 24.9946 18.2319 24.0485C20.516 23.1024 22.4682 21.5002 23.8418 19.4446C25.2153 17.389 25.9484 14.9723 25.9484 12.5C25.9448 9.1859 24.6266 6.00858 22.2832 3.66517C19.9398 1.32175 16.7625 0.00362236 13.4484 0ZM10.3227 18.1273C10.322 18.1827 10.2995 18.2356 10.26 18.2746C10.2206 18.3135 10.1674 18.3353 10.112 18.3353H7.70338C7.64821 18.3353 7.5953 18.3134 7.55629 18.2744C7.51728 18.2354 7.49537 18.1825 7.49537 18.1273V10.0339C7.495 10.0064 7.50012 9.97905 7.51041 9.95349C7.5207 9.92794 7.53596 9.90468 7.55532 9.88508C7.57467 9.86547 7.59772 9.8499 7.62314 9.83928C7.64856 9.82865 7.67583 9.82318 7.70338 9.82319H10.112C10.1396 9.82319 10.167 9.82864 10.1926 9.83923C10.2182 9.84982 10.2414 9.86534 10.261 9.88491C10.2806 9.90448 10.2961 9.92772 10.3067 9.95329C10.3173 9.97886 10.3227 10.0063 10.3227 10.0339V18.1273ZM8.82282 8.74206C8.52347 8.74206 8.23083 8.65329 7.98193 8.48698C7.73302 8.32066 7.53902 8.08428 7.42446 7.80771C7.3099 7.53114 7.27993 7.22681 7.33833 6.9332C7.39673 6.6396 7.54089 6.3699 7.75256 6.15823C7.96424 5.94655 8.23394 5.80239 8.52754 5.74399C8.82115 5.68559 9.12547 5.71557 9.40204 5.83012C9.67861 5.94468 9.915 6.13868 10.0813 6.38759C10.2476 6.63649 10.3364 6.92913 10.3364 7.22849C10.3368 7.42735 10.2979 7.62433 10.2219 7.80813C10.146 7.99193 10.0345 8.15893 9.89389 8.29955C9.75327 8.44017 9.58627 8.55164 9.40247 8.62758C9.21867 8.70352 9.02169 8.74242 8.82282 8.74206ZM20.5154 18.1273C20.5147 18.1827 20.4922 18.2356 20.4527 18.2746C20.4133 18.3135 20.3601 18.3353 20.3046 18.3353H17.8961C17.8687 18.3353 17.8417 18.33 17.8165 18.3195C17.7912 18.309 17.7683 18.2937 17.749 18.2744C17.7297 18.2551 17.7143 18.2322 17.7039 18.2069C17.6934 18.1817 17.6881 18.1546 17.6881 18.1273V13.7782C17.6881 12.6341 17.2802 11.8623 16.2566 11.8623C15.9376 11.8641 15.627 11.9644 15.3673 12.1497C15.1076 12.3349 14.9115 12.5959 14.806 12.8969C14.7338 13.1193 14.7023 13.353 14.7129 13.5866V18.1273C14.7129 18.1832 14.6907 18.2368 14.6512 18.2763C14.6117 18.3159 14.558 18.3381 14.5022 18.3381H12.0936C12.066 18.3381 12.0387 18.3326 12.0133 18.322C11.9879 18.3114 11.9649 18.2958 11.9455 18.2762C11.9262 18.2566 11.9109 18.2333 11.9006 18.2078C11.8903 18.1822 11.8852 18.1549 11.8856 18.1273C11.8856 16.9723 11.9157 11.3641 11.8856 10.0449C11.8852 10.0173 11.8903 9.99 11.9006 9.96444C11.9109 9.93889 11.9262 9.91563 11.9455 9.89603C11.9649 9.87642 11.9879 9.86085 12.0133 9.85023C12.0387 9.8396 12.066 9.83413 12.0936 9.83413H14.4967C14.5245 9.83377 14.552 9.83897 14.5778 9.84943C14.6035 9.85989 14.6269 9.8754 14.6465 9.89504C14.6662 9.91469 14.6817 9.93807 14.6921 9.9638C14.7026 9.98954 14.7078 10.0171 14.7074 10.0449V11.0384C14.9634 10.594 15.3363 10.2282 15.7855 9.98065C16.2347 9.73313 16.7431 9.61335 17.2556 9.63433C19.114 9.63433 20.5099 10.8496 20.5099 13.4662L20.5154 18.1273ZM14.7129 11.0658V11.0357L14.6937 11.0658H14.7129ZM14.6937 11.0658H14.7129V11.0357L14.6937 11.0658ZM14.6937 11.0658H14.7129V11.0357L14.6937 11.0658ZM14.6937 11.0658H14.7129V11.0357L14.6937 11.0658ZM14.6937 11.0658H14.7129V11.0357L14.6937 11.0658ZM14.6937 11.0658H14.7129V11.0357L14.6937 11.0658ZM14.6937 11.0658H14.7129V11.0357L14.6937 11.0658ZM14.6937 11.0658H14.7129V11.0357L14.6937 11.0658ZM14.6937 11.0658H14.7129V11.0357L14.6937 11.0658ZM14.6937 11.0658H14.7129V11.0357L14.6937 11.0658ZM14.6937 11.0658H14.7129V11.0357L14.6937 11.0658ZM14.6937 11.0658H14.7129V11.0357L14.6937 11.0658ZM14.6937 11.0658H14.7129V11.0357L14.6937 11.0658ZM14.6937 11.0658H14.7129V11.0357L14.6937 11.0658ZM14.6937 11.0658H14.7129V11.0357L14.6937 11.0658Z" fill="#F59E0B"/>
</g>
<defs>
<clipPath id="clip0_12_228">
<rect width="25" height="25" fill="white" transform="translate(0.948395)"/>
</clipPath>
</defs>
</svg>
