<svg width="18" height="21" viewBox="0 0 18 21" fill="none" xmlns="http://www.w3.org/2000/svg">
<g clip-path="url(#clip0_32_2)">
<path d="M16.3848 10.4999C16.3848 10.2315 16.2769 9.97408 16.0848 9.78429C15.8928 9.5945 15.6323 9.48788 15.3607 9.48788H7.58819L9.9435 7.1704C10.039 7.07605 10.1147 6.96403 10.1664 6.84074C10.2181 6.71746 10.2447 6.58532 10.2447 6.45188C10.2447 6.31844 10.2181 6.18631 10.1664 6.06302C10.1147 5.93974 10.039 5.82772 9.9435 5.73336C9.84802 5.63901 9.73467 5.56416 9.60992 5.51309C9.48517 5.46203 9.35146 5.43574 9.21643 5.43574C9.0814 5.43574 8.94769 5.46203 8.82294 5.51309C8.69819 5.56416 8.58484 5.63901 8.48935 5.73336L4.39316 9.78136C4.29993 9.87761 4.22685 9.9911 4.17811 10.1153C4.07569 10.3617 4.07569 10.6381 4.17811 10.8844C4.22685 11.0087 4.29993 11.1222 4.39316 11.2184L8.48935 15.2664C8.58455 15.3613 8.69781 15.4365 8.8226 15.4879C8.94739 15.5393 9.08124 15.5658 9.21643 15.5658C9.35161 15.5658 9.48546 15.5393 9.61025 15.4879C9.73504 15.4365 9.8483 15.3613 9.9435 15.2664C10.0395 15.1723 10.1157 15.0604 10.1677 14.9371C10.2196 14.8138 10.2464 14.6815 10.2464 14.5479C10.2464 14.4143 10.2196 14.282 10.1677 14.1587C10.1157 14.0354 10.0395 13.9234 9.9435 13.8294L7.58819 11.5119H15.3607C15.6323 11.5119 15.8928 11.4053 16.0848 11.2155C16.2769 11.0257 16.3848 10.7683 16.3848 10.4999ZM13.3126 0.379883H3.07214C2.25736 0.379883 1.47595 0.699746 0.89981 1.26911C0.323671 1.83847 0 2.61069 0 3.41588V17.5839C0 18.3891 0.323671 19.1613 0.89981 19.7307C1.47595 20.3 2.25736 20.6199 3.07214 20.6199H13.3126C14.1274 20.6199 14.9088 20.3 15.485 19.7307C16.0611 19.1613 16.3848 18.3891 16.3848 17.5839V14.5479C16.3848 14.2795 16.2769 14.0221 16.0848 13.8323C15.8928 13.6425 15.6323 13.5359 15.3607 13.5359C15.0891 13.5359 14.8286 13.6425 14.6366 13.8323C14.4446 14.0221 14.3367 14.2795 14.3367 14.5479V17.5839C14.3367 17.8523 14.2288 18.1097 14.0367 18.2995C13.8447 18.4893 13.5842 18.5959 13.3126 18.5959H3.07214C2.80055 18.5959 2.54008 18.4893 2.34803 18.2995C2.15599 18.1097 2.0481 17.8523 2.0481 17.5839V3.41588C2.0481 3.14748 2.15599 2.89008 2.34803 2.70029C2.54008 2.5105 2.80055 2.40388 3.07214 2.40388H13.3126C13.5842 2.40388 13.8447 2.5105 14.0367 2.70029C14.2288 2.89008 14.3367 3.14748 14.3367 3.41588V6.45188C14.3367 6.72028 14.4446 6.97769 14.6366 7.16747C14.8286 7.35726 15.0891 7.46388 15.3607 7.46388C15.6323 7.46388 15.8928 7.35726 16.0848 7.16747C16.2769 6.97769 16.3848 6.72028 16.3848 6.45188V3.41588C16.3848 2.61069 16.0611 1.83847 15.485 1.26911C14.9088 0.699746 14.1274 0.379883 13.3126 0.379883Z" fill="#585858"/>
</g>
<defs>
<clipPath id="clip0_32_2">
<rect width="18" height="20.24" fill="white" transform="translate(0 0.379883)"/>
</clipPath>
</defs>
</svg>
