<svg width="19" height="21" viewBox="0 0 19 21" fill="none" xmlns="http://www.w3.org/2000/svg">
<g clip-path="url(#clip0_32_14)">
<path d="M17 10.5001C17 10.24 16.9012 9.9905 16.7254 9.80657C16.5496 9.62264 16.3111 9.51931 16.0625 9.51931L8.94687 9.51931L11.1031 7.27335C11.1905 7.1819 11.2599 7.07334 11.3072 6.95386C11.3545 6.83438 11.3788 6.70632 11.3788 6.577C11.3788 6.44768 11.3545 6.31962 11.3072 6.20014C11.2599 6.08066 11.1905 5.9721 11.1031 5.88065C11.0157 5.78921 10.9119 5.71667 10.7977 5.66718C10.6835 5.61769 10.5611 5.59222 10.4375 5.59222C10.3139 5.59222 10.1915 5.61769 10.0773 5.66718C9.96306 5.71667 9.85929 5.78921 9.77187 5.88065L6.02187 9.80373C5.93652 9.89701 5.86962 10.007 5.825 10.1274C5.73123 10.3662 5.73123 10.634 5.825 10.8728C5.86962 10.9932 5.93652 11.1032 6.02187 11.1964L9.77187 15.1195C9.85903 15.2114 9.96271 15.2844 10.077 15.3342C10.1912 15.384 10.3137 15.4096 10.4375 15.4096C10.5613 15.4096 10.6838 15.384 10.798 15.3342C10.9123 15.2844 11.016 15.2114 11.1031 15.1195C11.191 15.0283 11.2607 14.9199 11.3083 14.8003C11.3559 14.6808 11.3804 14.5526 11.3804 14.4232C11.3804 14.2937 11.3559 14.1655 11.3083 14.046C11.2607 13.9265 11.191 13.818 11.1031 13.7268L8.94687 11.4808L16.0625 11.4808C16.3111 11.4808 16.5496 11.3775 16.7254 11.1936C16.9012 11.0097 17 10.7602 17 10.5001ZM14.1875 0.692385L4.8125 0.692383C4.06658 0.692383 3.35121 1.00238 2.82376 1.55417C2.29632 2.10596 2 2.85434 2 3.63469L2 17.3655C2 18.1458 2.29631 18.8942 2.82376 19.446C3.3512 19.9978 4.06658 20.3078 4.8125 20.3078L14.1875 20.3078C14.9334 20.3078 15.6488 19.9978 16.1762 19.446C16.7037 18.8942 17 18.1458 17 17.3655L17 14.4232C17 14.163 16.9012 13.9136 16.7254 13.7297C16.5496 13.5457 16.3111 13.4424 16.0625 13.4424C15.8139 13.4424 15.5754 13.5457 15.3996 13.7296C15.2238 13.9136 15.125 14.163 15.125 14.4232L15.125 17.3655C15.125 17.6256 15.0262 17.875 14.8504 18.059C14.6746 18.2429 14.4361 18.3462 14.1875 18.3462L4.8125 18.3462C4.56386 18.3462 4.3254 18.2429 4.14958 18.059C3.97377 17.875 3.875 17.6256 3.875 17.3655L3.875 3.63469C3.875 3.37458 3.97377 3.12511 4.14959 2.94118C4.3254 2.75725 4.56386 2.65392 4.8125 2.65392L14.1875 2.65392C14.4361 2.65392 14.6746 2.75725 14.8504 2.94119C15.0262 3.12512 15.125 3.37458 15.125 3.63469L15.125 6.577C15.125 6.83712 15.2238 7.08658 15.3996 7.27051C15.5754 7.45444 15.8139 7.55777 16.0625 7.55777C16.3111 7.55777 16.5496 7.45444 16.7254 7.27051C16.9012 7.08658 17 6.83712 17 6.577L17 3.63469C17 2.85435 16.7037 2.10596 16.1762 1.55417C15.6488 1.00238 14.9334 0.692385 14.1875 0.692385Z" fill="#FF2929"/>
</g>
<defs>
<clipPath id="clip0_32_14">
<rect width="19" height="19.6154" fill="white" transform="translate(0 0.692383)"/>
</clipPath>
</defs>
</svg>
