<svg width="26.36" height="20" viewBox="0 0 29 22" fill="none" xmlns="http://www.w3.org/2000/svg">
<g clip-path="url(#clip0_64_29)">
<path d="M27.4694 9.16675H1.53056C0.685253 9.16675 0 9.94652 0 10.9084V11.0917C0 12.0536 0.685253 12.8334 1.53056 12.8334H27.4694C28.3147 12.8334 29 12.0536 29 11.0917V10.9084C29 9.94652 28.3147 9.16675 27.4694 9.16675Z" fill="#585858"/>
<path d="M27.4694 18.3333H1.53056C0.685253 18.3333 0 19.113 0 20.0749V20.2583C0 21.2201 0.685253 21.9999 1.53056 21.9999H27.4694C28.3147 21.9999 29 21.2201 29 20.2583V20.0749C29 19.113 28.3147 18.3333 27.4694 18.3333Z" fill="#585858"/>
<path d="M27.4694 0H1.53056C0.685253 0 0 0.77977 0 1.74167V1.925C0 2.8869 0.685253 3.66667 1.53056 3.66667H27.4694C28.3147 3.66667 29 2.8869 29 1.925V1.74167C29 0.77977 28.3147 0 27.4694 0Z" fill="#585858"/>
</g>
<defs>
<clipPath id="clip0_64_29">
<rect width="29" height="22" fill="white"/>
</clipPath>
</defs>
</svg>
