<svg width="43" height="43" viewBox="0 0 43 43" fill="none" xmlns="http://www.w3.org/2000/svg">
<rect x="42.5" y="42.5" width="42" height="42" rx="21" transform="rotate(180 42.5 42.5)" stroke="black"/>
<path d="M12.9141 22.9328L26.643 22.9328L23.3503 26.2111C23.0807 26.4807 22.9293 26.8463 22.9293 27.2275C22.9293 27.6088 23.0807 27.9744 23.3503 28.244C23.6199 28.5135 23.9855 28.665 24.3667 28.665C24.748 28.665 25.1136 28.5135 25.3832 28.244L31.1095 22.5176C31.2398 22.3815 31.342 22.2209 31.4101 22.0452C31.5533 21.6967 31.5533 21.3057 31.4101 20.9572C31.342 20.7815 31.2398 20.6209 31.1095 20.4848L25.3832 14.7584C25.2501 14.6243 25.0917 14.5178 24.9173 14.4451C24.7428 14.3724 24.5557 14.335 24.3667 14.335C24.1777 14.335 23.9906 14.3724 23.8162 14.4451C23.6417 14.5178 23.4834 14.6243 23.3503 14.7584C23.2161 14.8915 23.1096 15.0499 23.0369 15.2243C22.9643 15.3988 22.9268 15.5859 22.9268 15.7749C22.9268 15.9638 22.9643 16.151 23.0369 16.3254C23.1096 16.4999 23.2161 16.6582 23.3503 16.7913L26.643 20.0696L12.9141 20.0696C12.5344 20.0696 12.1703 20.2204 11.9018 20.4889C11.6333 20.7574 11.4825 21.1215 11.4825 21.5012C11.4825 21.8809 11.6333 22.245 11.9018 22.5135C12.1703 22.782 12.5344 22.9328 12.9141 22.9328Z" fill="#434343"/>
</svg>
