<svg width="21" height="15" viewBox="0 0 21 15" fill="none" xmlns="http://www.w3.org/2000/svg">
<path d="M1.46686 8.93285L15.1957 8.93285L11.9031 12.2112C11.6335 12.4807 11.4821 12.8464 11.4821 13.2276C11.4821 13.6088 11.6335 13.9745 11.9031 14.244C12.1727 14.5136 12.5383 14.665 12.9195 14.665C13.3008 14.665 13.6664 14.5136 13.936 14.244L19.6623 8.51769C19.7926 8.38154 19.8948 8.22099 19.9629 8.04526C20.1061 7.69673 20.1061 7.3058 19.9629 6.95726C19.8948 6.78153 19.7926 6.62099 19.6623 6.48484L13.936 0.758501C13.8029 0.624321 13.6445 0.517817 13.4701 0.445138C13.2956 0.372457 13.1085 0.33504 12.9195 0.33504C12.7305 0.33504 12.5434 0.372457 12.369 0.445138C12.1945 0.517817 12.0362 0.624321 11.9031 0.758501C11.7689 0.891585 11.6624 1.04992 11.5897 1.22437C11.5171 1.39882 11.4796 1.58594 11.4796 1.77493C11.4796 1.96391 11.5171 2.15103 11.5897 2.32548C11.6624 2.49993 11.7689 2.65826 11.9031 2.79135L15.1957 6.06968L1.46686 6.06968C1.08718 6.06968 0.723047 6.2205 0.454574 6.48898C0.186099 6.75745 0.0352738 7.12158 0.0352739 7.50126C0.0352739 7.88094 0.186099 8.24507 0.454574 8.51355C0.723047 8.78202 1.08718 8.93285 1.46686 8.93285Z" fill="#F4F4F4"/>
</svg>
