<svg width="19" height="17" viewBox="0 0 19 17" fill="none" xmlns="http://www.w3.org/2000/svg">
<g clip-path="url(#clip0_43_259)">
<path d="M15.5455 16.7045H3.45455C2.53834 16.7045 1.65967 16.3405 1.01181 15.6926C0.36396 15.0448 0 14.1661 0 13.2499V9.79537C0 8.87916 0.36396 8.00049 1.01181 7.35263C1.65967 6.70478 2.53834 6.34082 3.45455 6.34082H15.5455C16.4617 6.34082 17.3403 6.70478 17.9882 7.35263C18.636 8.00049 19 8.87916 19 9.79537V13.2499C19 14.1661 18.636 15.0448 17.9882 15.6926C17.3403 16.3405 16.4617 16.7045 15.5455 16.7045ZM3.45455 8.06809C2.99644 8.06809 2.55711 8.25007 2.23318 8.574C1.90925 8.89793 1.72727 9.33726 1.72727 9.79537V13.2499C1.72727 13.708 1.90925 14.1474 2.23318 14.4713C2.55711 14.7952 2.99644 14.9772 3.45455 14.9772H15.5455C16.0036 14.9772 16.4429 14.7952 16.7668 14.4713C17.0907 14.1474 17.2727 13.708 17.2727 13.2499V9.79537C17.2727 9.33726 17.0907 8.89793 16.7668 8.574C16.4429 8.25007 16.0036 8.06809 15.5455 8.06809H3.45455Z" fill="#888786"/>
<path d="M15.5457 8.06814H3.45483V6.34086C3.45483 4.73751 4.09176 3.19983 5.22551 2.06608C6.35925 0.93234 7.89693 0.29541 9.50029 0.29541C11.1036 0.29541 12.6413 0.93234 13.7751 2.06608C14.9088 3.19983 15.5457 4.73751 15.5457 6.34086V8.06814ZM5.18211 6.34086H13.8185C13.8185 5.19561 13.3635 4.09727 12.5537 3.28745C11.7439 2.47763 10.6455 2.02268 9.50029 2.02268C8.35504 2.02268 7.25669 2.47763 6.44687 3.28745C5.63706 4.09727 5.18211 5.19561 5.18211 6.34086Z" fill="#888786"/>
<path d="M15.5456 7.20459H3.45468C2.76753 7.20459 2.10852 7.47756 1.62263 7.96345C1.13674 8.44934 0.86377 9.10835 0.86377 9.7955V13.25C0.86377 13.9372 1.13674 14.5962 1.62263 15.0821C2.10852 15.568 2.76753 15.841 3.45468 15.841H15.5456C16.2327 15.841 16.8917 15.568 17.3776 15.0821C17.8635 14.5962 18.1365 13.9372 18.1365 13.25V9.7955C18.1365 9.10835 17.8635 8.44934 17.3776 7.96345C16.8917 7.47756 16.2327 7.20459 15.5456 7.20459ZM4.31831 12.3864C4.1475 12.3864 3.98053 12.3358 3.8385 12.2409C3.69648 12.146 3.58579 12.0111 3.52042 11.8533C3.45505 11.6955 3.43795 11.5218 3.47127 11.3543C3.5046 11.1868 3.58685 11.0329 3.70763 10.9121C3.82841 10.7913 3.9823 10.7091 4.14983 10.6757C4.31736 10.6424 4.491 10.6595 4.64881 10.7249C4.80662 10.7902 4.9415 10.9009 5.0364 11.043C5.1313 11.185 5.18195 11.352 5.18195 11.5228C5.18195 11.7518 5.09096 11.9715 4.929 12.1335C4.76703 12.2954 4.54737 12.3864 4.31831 12.3864ZM7.77286 12.3864C7.60205 12.3864 7.43507 12.3358 7.29305 12.2409C7.15102 12.146 7.04033 12.0111 6.97496 11.8533C6.9096 11.6955 6.89249 11.5218 6.92582 11.3543C6.95914 11.1868 7.0414 11.0329 7.16218 10.9121C7.28296 10.7913 7.43684 10.7091 7.60437 10.6757C7.7719 10.6424 7.94555 10.6595 8.10336 10.7249C8.26117 10.7902 8.39605 10.9009 8.49095 11.043C8.58584 11.185 8.6365 11.352 8.6365 11.5228C8.6365 11.7518 8.54551 11.9715 8.38354 12.1335C8.22158 12.2954 8.00191 12.3864 7.77286 12.3864ZM11.2274 12.3864C11.0566 12.3864 10.8896 12.3358 10.7476 12.2409C10.6056 12.146 10.4949 12.0111 10.4295 11.8533C10.3641 11.6955 10.347 11.5218 10.3804 11.3543C10.4137 11.1868 10.4959 11.0329 10.6167 10.9121C10.7375 10.7913 10.8914 10.7091 11.0589 10.6757C11.2264 10.6424 11.4001 10.6595 11.5579 10.7249C11.7157 10.7902 11.8506 10.9009 11.9455 11.043C12.0404 11.185 12.091 11.352 12.091 11.5228C12.091 11.7518 12.0001 11.9715 11.8381 12.1335C11.6761 12.2954 11.4565 12.3864 11.2274 12.3864ZM14.682 12.3864C14.5111 12.3864 14.3442 12.3358 14.2021 12.2409C14.0601 12.146 13.9494 12.0111 13.8841 11.8533C13.8187 11.6955 13.8016 11.5218 13.8349 11.3543C13.8682 11.1868 13.9505 11.0329 14.0713 10.9121C14.192 10.7913 14.3459 10.7091 14.5135 10.6757C14.681 10.6424 14.8546 10.6595 15.0124 10.7249C15.1703 10.7902 15.3051 10.9009 15.4 11.043C15.4949 11.185 15.5456 11.352 15.5456 11.5228C15.5456 11.7518 15.4546 11.9715 15.2926 12.1335C15.1307 12.2954 14.911 12.3864 14.682 12.3864Z" fill="#888786"/>
</g>
<defs>
<clipPath id="clip0_43_259">
<rect width="19" height="16.4091" fill="white" transform="translate(0 0.29541)"/>
</clipPath>
</defs>
</svg>
