<svg width="21" height="15" viewBox="0 0 21 15" fill="none" xmlns="http://www.w3.org/2000/svg">
<path d="M18.6035 6.06715H4.87456L8.16721 2.78883C8.43678 2.51925 8.58822 2.15364 8.58822 1.7724C8.58822 1.39117 8.43678 1.02555 8.16721 0.755977C7.89763 0.486405 7.53202 0.334961 7.15078 0.334961C6.76955 0.334961 6.40393 0.486405 6.13436 0.755977L0.408021 6.48231C0.277689 6.61846 0.175524 6.77901 0.107388 6.95474C-0.0357961 7.30327 -0.0357961 7.6942 0.107388 8.04274C0.175524 8.21847 0.277689 8.37901 0.408021 8.51516L6.13436 14.2415C6.26744 14.3757 6.42578 14.4822 6.60023 14.5549C6.77468 14.6275 6.9618 14.665 7.15078 14.665C7.33977 14.665 7.52688 14.6275 7.70134 14.5549C7.87579 14.4822 8.03412 14.3757 8.16721 14.2415C8.30139 14.1084 8.40789 13.9501 8.48057 13.7756C8.55325 13.6012 8.59067 13.4141 8.59067 13.2251C8.59067 13.0361 8.55325 12.849 8.48057 12.6745C8.40789 12.5001 8.30139 12.3417 8.16721 12.2087L4.87456 8.93032H18.6035C18.9831 8.93032 19.3473 8.7795 19.6157 8.51102C19.8842 8.24255 20.035 7.87842 20.035 7.49874C20.035 7.11906 19.8842 6.75493 19.6157 6.48646C19.3473 6.21798 18.9831 6.06715 18.6035 6.06715Z" fill="#F4F4F4"/>
</svg>
