<svg width="19" height="18" viewBox="0 0 19 18" fill="none" xmlns="http://www.w3.org/2000/svg">
<g clip-path="url(#clip0_32_16)">
<path d="M12.6564 9.60627C13.4939 8.9474 14.1051 8.04388 14.4051 7.02142C14.7052 5.99897 14.6791 4.90841 14.3304 3.90149C13.9818 2.89456 13.328 2.02134 12.46 1.40329C11.592 0.78525 10.5529 0.453125 9.48733 0.453125C8.42176 0.453125 7.38269 0.78525 6.51466 1.40329C5.64664 2.02134 4.99284 2.89456 4.64421 3.90149C4.29559 4.90841 4.26948 5.99897 4.56951 7.02142C4.86955 8.04388 5.48081 8.9474 6.31826 9.60627C4.88327 10.1812 3.6312 11.1347 2.69552 12.3653C1.75983 13.5958 1.17562 15.0572 1.00515 16.5936C0.992813 16.7058 1.00269 16.8193 1.03422 16.9276C1.06574 17.036 1.11831 17.1371 1.1889 17.2251C1.33147 17.403 1.53884 17.5168 1.76539 17.5418C1.99194 17.5667 2.2191 17.5006 2.39692 17.358C2.57473 17.2154 2.68863 17.0081 2.71355 16.7815C2.90112 15.1117 3.69731 13.5696 4.95002 12.4497C6.20273 11.3299 7.82412 10.7108 9.50442 10.7108C11.1847 10.7108 12.8061 11.3299 14.0588 12.4497C15.3115 13.5696 16.1077 15.1117 16.2953 16.7815C16.3185 16.9914 16.4187 17.1853 16.5764 17.3257C16.7341 17.4661 16.9383 17.543 17.1495 17.5418H17.2434C17.4674 17.516 17.672 17.4028 17.8128 17.2268C17.9536 17.0508 18.0191 16.8263 17.9951 16.6021C17.8239 15.0614 17.2365 13.5962 16.296 12.3638C15.3555 11.1314 14.0974 10.1781 12.6564 9.60627ZM9.48733 8.99979C8.81155 8.99979 8.15095 8.7994 7.58906 8.42396C7.02718 8.04852 6.58924 7.51489 6.33063 6.89055C6.07202 6.26622 6.00436 5.57921 6.13619 4.91642C6.26803 4.25363 6.59345 3.64482 7.0713 3.16697C7.54914 2.68912 8.15796 2.3637 8.82075 2.23187C9.48354 2.10003 10.1705 2.16769 10.7949 2.4263C11.4192 2.68491 11.9528 3.12285 12.3283 3.68474C12.7037 4.24663 12.9041 4.90723 12.9041 5.583C12.9041 6.48919 12.5441 7.35827 11.9034 7.99904C11.2626 8.63981 10.3935 8.99979 9.48733 8.99979Z" fill="#585858"/>
</g>
<defs>
<clipPath id="clip0_32_16">
<rect width="19" height="17.0938" fill="white" transform="translate(0 0.453125)"/>
</clipPath>
</defs>
</svg>
