<svg width="18" height="18" viewBox="0 0 18 18" fill="none" xmlns="http://www.w3.org/2000/svg">
<g clip-path="url(#clip0_32_7)">
<path d="M11.3913 9.11409C12.1444 8.47909 12.6953 7.63566 12.9734 6.68799C13.2675 5.68583 13.2419 4.61693 12.9002 3.63C12.5585 2.64306 11.9177 1.78717 11.0669 1.1814C10.2161 0.575628 9.19764 0.250098 8.15323 0.250098C7.10881 0.250098 6.09037 0.575628 5.23958 1.1814C4.38879 1.78717 3.74797 2.64306 3.40626 3.63C3.06456 4.61693 3.03897 5.68583 3.33304 6.68799C3.61119 7.63586 4.16224 8.47944 4.91565 9.11448C3.58563 9.67897 2.42489 10.5811 1.54917 11.7328C0.639368 12.9293 0.0713107 14.3502 -0.0944406 15.8442L-0.0944509 15.8443C-0.10774 15.9651 -0.0971036 16.0873 -0.0631485 16.204C-0.0291933 16.3207 0.0274155 16.4296 0.103445 16.5244C0.256996 16.7159 0.480333 16.8386 0.724324 16.8654C0.968316 16.8923 1.21298 16.8211 1.40448 16.6675C1.59593 16.514 1.71858 16.2908 1.74547 16.0469C1.92291 14.4673 2.67611 13.0084 3.86118 11.949C5.04624 10.8896 6.58008 10.304 8.16964 10.304C9.7592 10.304 11.293 10.8896 12.4781 11.949C13.6632 13.0084 14.4164 14.4673 14.5938 16.0469C14.6189 16.273 14.7268 16.4819 14.8968 16.6331C15.0667 16.7844 15.2866 16.8673 15.514 16.866H15.5138V16.766L15.5144 16.866L11.3913 9.11409ZM8.15323 8.46032C7.52383 8.46032 6.90857 8.27369 6.38524 7.92401C5.86192 7.57434 5.45404 7.07733 5.21318 6.49585C4.97232 5.91436 4.9093 5.27451 5.03209 4.6572C5.15487 4.0399 5.45796 3.47287 5.90301 3.02782C6.34806 2.58277 6.91509 2.27969 7.53239 2.1569C8.14969 2.03411 8.78955 2.09713 9.37103 2.33799C9.95252 2.57885 10.4495 2.98673 10.7992 3.51005C11.1489 4.03338 11.3355 4.64864 11.3355 5.27804C11.3355 6.12203 11.0002 6.93146 10.4034 7.52825C9.80665 8.12505 8.99722 8.46032 8.15323 8.46032Z" fill="#585858" stroke="#585858" stroke-width="0.2"/>
<circle cx="13.8339" cy="13.4836" r="4.16598" fill="#F4F4F4"/>
<path d="M14.2129 10.0754C14.2129 14.6104 14.2129 16.0047 14.2129 16.135L14.2129 10.0754Z" stroke="#585858" stroke-width="2" stroke-linejoin="round"/>
<path d="M11.1829 13.1052C15.7178 13.1052 17.1122 13.1052 17.2425 13.1052L11.1829 13.1052Z" stroke="#585858" stroke-width="2" stroke-linejoin="round"/>
</g>
<defs>
<clipPath id="clip0_32_7">
<rect width="18" height="17.2996" fill="white" transform="translate(0 0.350098)"/>
</clipPath>
</defs>
</svg>
