<svg width="26" height="25" viewBox="0 0 26 25" fill="none" xmlns="http://www.w3.org/2000/svg">
<path d="M13.2291 0C6.20483 0 0.509766 5.59687 0.509766 12.5C0.509766 19.4031 6.20483 25 13.2291 25C20.2533 25 25.9484 19.4031 25.9484 12.5C25.9484 5.59531 20.2533 0 13.2291 0ZM19.5569 9.69375C19.5633 9.82656 19.5665 9.95938 19.5665 10.0922C19.5665 14.1594 16.4168 18.8484 10.6566 18.8484C8.8886 18.8484 7.24304 18.3391 5.85664 17.4656C6.67666 17.5632 7.50821 17.501 8.30373 17.2825C9.09925 17.064 9.84313 16.6935 10.4928 16.1922C9.83939 16.1798 9.20622 15.9671 8.68174 15.5839C8.15726 15.2007 7.76767 14.6661 7.56739 14.0547C8.037 14.1434 8.52105 14.1252 8.98241 14.0016C8.2738 13.8606 7.63659 13.4832 7.17876 12.9333C6.72093 12.3834 6.47065 11.6949 6.47035 10.9844V10.9453C6.9051 11.183 7.3913 11.3153 7.88855 11.3313C7.45981 11.0501 7.10836 10.6692 6.86539 10.2224C6.62242 9.77567 6.49547 9.27687 6.49579 8.77031C6.49579 8.20625 6.65001 7.67813 6.9187 7.22344C7.70495 8.17442 8.686 8.95218 9.7981 9.50618C10.9102 10.0602 12.1285 10.378 13.3737 10.4391C13.2158 9.7787 13.2842 9.08554 13.5684 8.46732C13.8525 7.8491 14.3366 7.34046 14.9452 7.02045C15.5539 6.70044 16.253 6.58698 16.934 6.69772C17.615 6.80846 18.2398 7.13719 18.7111 7.63281C19.4123 7.49634 20.0849 7.24379 20.7001 6.88594C20.4667 7.59906 19.9773 8.20441 19.3232 8.58906C19.9438 8.51669 20.5499 8.35342 21.1214 8.10469C20.7006 8.72194 20.1708 9.26013 19.5569 9.69375Z" fill="#F59E0B"/>
</svg>
