<svg width="19" height="19" viewBox="0 0 19 19" fill="none" xmlns="http://www.w3.org/2000/svg">
<g clip-path="url(#clip0_43_250)">
<path d="M9.5 0C14.7467 0 19 4.25329 19 9.5C19 12.2473 17.1205 14.44 14.82 14.44C13.7132 14.44 12.887 13.9994 12.3242 13.2182C11.6193 13.9727 10.6568 14.44 9.5 14.44C6.93079 14.44 5.32 12.1346 5.32 9.5C5.32 6.86536 6.93079 4.56 9.5 4.56C10.2766 4.56 10.9656 4.77062 11.549 5.13729C11.744 4.79275 12.1148 4.56 12.54 4.56C13.1171 4.56 13.5941 4.98887 13.6696 5.54531L13.68 5.7V9.5C13.68 11.3896 14.1073 12.16 14.82 12.16C15.7766 12.16 16.72 11.0594 16.72 9.5C16.72 5.5125 13.4875 2.28 9.5 2.28C5.5125 2.28 2.28 5.5125 2.28 9.5C2.28 13.4875 5.5125 16.72 9.5 16.72C10.1011 16.72 10.6915 16.6468 11.2622 16.5037L11.6863 16.3834L11.9823 16.2823C12.5735 16.0658 13.2283 16.3696 13.4447 16.9609C13.6432 17.5028 13.4044 18.0982 12.9079 18.3603L12.7662 18.4233L12.3759 18.5566C11.4532 18.8494 10.4861 19 9.5 19C4.25329 19 0 14.7467 0 9.5C0 4.25329 4.25329 0 9.5 0ZM9.5 6.84C8.40076 6.84 7.6 7.98605 7.6 9.5C7.6 11.0139 8.40076 12.16 9.5 12.16C10.5992 12.16 11.4 11.0139 11.4 9.5C11.4 7.98605 10.5992 6.84 9.5 6.84Z" fill="#585858" fill-opacity="0.7"/>
</g>
<defs>
<clipPath id="clip0_43_250">
<rect width="19" height="19" fill="white"/>
</clipPath>
</defs>
</svg>
